<?xml version="1.0" encoding="utf-8"?>
<!-- Generator: Adobe Illustrator 27.0.0, SVG Export Plug-In . SVG Version: 6.00 Build 0)  -->
<svg version="1.1" id="레이어_1" xmlns="http://www.w3.org/2000/svg" xmlns:xlink="http://www.w3.org/1999/xlink" x="0px"
	 y="0px" viewBox="0 0 307.6 58.1" style="enable-background:new 0 0 307.6 58.1;" xml:space="preserve">
<style type="text/css">
	.st0{fill:#021BF5;}
</style>
<g>
	<g>
		<g>
			<polygon class="st0" points="289.2,13.1 291.8,13.1 290.5,9.6 			"/>
			<path class="st0" d="M257.5,13.4h-2.7v3h2.7c0.6,0,1-0.5,1-1.1v-0.9C258.5,13.9,258.1,13.4,257.5,13.4z"/>
			<path class="st0" d="M258.1,9.2V8.4c0-0.6-0.4-1.1-1-1.1h-2.3v2.9h2.3C257.7,10.3,258.1,9.8,258.1,9.2z"/>
			<path class="st0" d="M295.8,0.6h-44.5c-6,0-11.2,5.4-11.2,11.5s5.2,11.5,11.2,11.5h44.5c6,0,11.2-5.4,11.2-11.5
				S301.8,0.6,295.8,0.6z M261.7,15.4c0,2.3-1.9,4.2-4.2,4.2h-5.8V4.2h5.4c2.3,0,4.2,1.8,4.2,4.2v0.8c0,0.8-0.2,1.7-0.7,2.4
				c0.7,0.8,1.1,1.8,1.1,2.9V15.4z M273.4,7.4h-6.8V10h6v3.2h-6v3.3h6.8v3.1h-10V4.2h10V7.4L273.4,7.4z M284.9,7.4h-3.4v12.2h-3.1
				V7.4H275V4.2h10L284.9,7.4L284.9,7.4z M295.5,19.6h-3.1v-3.3h-3.7v3.3h-3.1v-5.4l3.6-10h2.8l3.6,10L295.5,19.6L295.5,19.6z"/>
		</g>
		<g>
			<path class="st0" d="M89.6,20v-4.4c0-3.6-2.8-6.4-6.4-6.4h-6.4c-3.6,0-6.4,2.9-6.4,6.4v27.3c0,3.5,2.9,6.5,6.4,6.5h6.4
				c3.6,0,6.4-2.9,6.4-6.5v-4.4v-3.3H77.5v-8.1h20.2v11.4v4.4c0,8-6.4,14.6-14.5,14.6h-6.4c-8,0-14.5-6.6-14.5-14.6V15.6
				c0-8.1,6.5-14.5,14.5-14.5h6.4c8.1,0,14.5,6.4,14.5,14.5V20H89.6L89.6,20z"/>
			<path class="st0" d="M186.4,1.1v18.4l-13.7,18v20.1h-8.1V37.4l-13.7-17V1.1h8.1v16.5l9.5,11.9h0.2l9.7-12.7V1.1H186.4z"/>
			<path class="st0" d="M121.7,57.5c-8,0-14.5-6.6-14.5-14.6V15.6c0-8.1,6.5-14.5,14.5-14.5h6.4c8.1,0,14.5,6.4,14.5,14.5v27.3
				c0,8-6.4,14.6-14.5,14.6H121.7z M134.6,42.9V15.6c0-3.6-2.8-6.4-6.4-6.4h-6.4c-3.6,0-6.4,2.9-6.4,6.4v27.3c0,3.5,2.9,6.5,6.4,6.5
				h6.4C131.7,49.4,134.6,46.5,134.6,42.9z"/>
			<path class="st0" d="M210.2,57.5c-8,0-14.5-6.6-14.5-14.6V15.6c0-8.1,6.5-14.5,14.5-14.5h6.4c8.1,0,14.5,6.4,14.5,14.5v27.3
				c0,8-6.4,14.6-14.5,14.6H210.2z M223.1,42.9V15.6c0-3.6-2.8-6.4-6.4-6.4h-6.4c-3.6,0-6.4,2.9-6.4,6.4v27.3c0,3.5,2.9,6.5,6.4,6.5
				h6.4C220.2,49.4,223.1,46.5,223.1,42.9z"/>
		</g>
	</g>
	<g>
		<g>
			<path class="st0" d="M22.9,45.5c-12.2,0-22.2-10-22.2-22.2s10-22.2,22.2-22.2c12.3,0,22.2,10,22.2,22.2S35.2,45.5,22.9,45.5z
				 M22.9,6.4C13.6,6.4,6,14,6,23.3s7.6,16.9,16.9,16.9s16.9-7.6,16.9-16.9S32.2,6.4,22.9,6.4z"/>
			<circle class="st0" cx="22.9" cy="13.1" r="3.5"/>
		</g>
		<rect x="2.4" y="52.2" class="st0" width="41" height="5.3"/>
	</g>
</g>
</svg>
