<?xml version="1.0" encoding="utf-8"?>
<!-- Generator: Adobe Illustrator 26.5.0, SVG Export Plug-In . SVG Version: 6.00 Build 0)  -->
<svg version="1.1" id="레이어_1" xmlns="http://www.w3.org/2000/svg" xmlns:xlink="http://www.w3.org/1999/xlink" x="0px"
	 y="0px" viewBox="0 0 234.48 269.77" style="enable-background:new 0 0 234.48 269.77;" xml:space="preserve">
<style type="text/css">
	.st0{fill:#2B2C2D;}
</style>
<g id="그룹_5270" transform="translate(-143.39 -131.646)">
	<g id="그룹_5261" transform="translate(143.39 198.075)">
		<g id="그룹_5252" transform="translate(6.513 143.832)">
			<g id="그룹_5247">
				<path id="패스_8535" class="st0" d="M5.11,0.67C5.78,0.66,6.46,0.78,7.1,1.01c0.6,0.22,1.14,0.57,1.59,1.02
					c0.47,0.48,0.83,1.06,1.05,1.7c0.27,0.77,0.4,1.58,0.38,2.4c0.01,0.75-0.1,1.51-0.31,2.23c-0.19,0.65-0.51,1.25-0.94,1.77
					c-0.43,0.5-0.96,0.9-1.56,1.17c-0.7,0.3-1.45,0.44-2.21,0.43H0.34V0.67H5.11z M4.94,9.68c0.35,0,0.69-0.06,1.02-0.17
					C6.29,9.39,6.59,9.2,6.84,8.94C7.12,8.65,7.33,8.3,7.46,7.92c0.17-0.5,0.25-1.02,0.23-1.55C7.7,5.86,7.64,5.35,7.53,4.86
					C7.43,4.44,7.25,4.04,6.99,3.7C6.74,3.38,6.4,3.12,6.01,2.97C5.53,2.78,5.02,2.7,4.5,2.71H2.77v6.97L4.94,9.68z"/>
				<path id="패스_8536" class="st0" d="M13.47,9.81c0.74,0.58,1.77,0.64,2.57,0.15c0.27-0.16,0.48-0.41,0.59-0.7h1.94
					c-0.22,0.83-0.72,1.56-1.43,2.06c-0.7,0.43-1.5,0.64-2.32,0.62c-0.58,0.01-1.16-0.09-1.7-0.3c-0.49-0.19-0.93-0.48-1.29-0.86
					c-0.36-0.38-0.64-0.84-0.81-1.33c-0.2-0.55-0.29-1.12-0.29-1.7c-0.01-0.57,0.09-1.14,0.29-1.67c0.37-1.01,1.14-1.81,2.13-2.23
					c0.53-0.22,1.09-0.33,1.66-0.33c0.62-0.01,1.23,0.12,1.78,0.4c0.49,0.25,0.92,0.61,1.25,1.06c0.33,0.46,0.57,0.97,0.7,1.52
					c0.15,0.58,0.2,1.18,0.15,1.78h-5.77C12.9,8.83,13.1,9.38,13.47,9.81z M15.95,5.59c-0.32-0.31-0.76-0.47-1.2-0.43
					c-0.3-0.01-0.6,0.05-0.88,0.18c-0.21,0.11-0.4,0.26-0.56,0.44c-0.13,0.17-0.23,0.35-0.29,0.56c-0.05,0.17-0.09,0.35-0.1,0.53
					h3.58C16.44,6.4,16.25,5.96,15.95,5.59L15.95,5.59z"/>
				<path id="패스_8537" class="st0" d="M24.18,6.55v1.89h-4.66V6.55H24.18z"/>
				<path id="패스_8538" class="st0" d="M28.02,0.67l4.62,7.42h0.03V0.67h2.28v11.06h-2.43l-4.6-7.4h-0.03v7.4H25.6V0.67H28.02z"
					/>
				<path id="패스_8539" class="st0" d="M36.43,5.99c0.36-1,1.14-1.8,2.14-2.18c0.54-0.21,1.12-0.31,1.7-0.3
					c0.58-0.01,1.16,0.09,1.71,0.3c1,0.38,1.78,1.18,2.14,2.18c0.2,0.56,0.3,1.15,0.29,1.74c0.01,0.59-0.09,1.18-0.29,1.73
					c-0.18,0.5-0.47,0.95-0.84,1.32c-0.37,0.37-0.82,0.66-1.31,0.85c-0.55,0.2-1.13,0.3-1.71,0.29c-0.58,0.01-1.16-0.09-1.7-0.29
					c-0.49-0.19-0.93-0.47-1.3-0.85c-0.37-0.38-0.65-0.83-0.84-1.32c-0.2-0.55-0.3-1.14-0.29-1.73C36.13,7.14,36.23,6.55,36.43,5.99
					z M38.43,8.67c0.06,0.29,0.16,0.57,0.32,0.82c0.15,0.24,0.35,0.44,0.6,0.58c0.28,0.15,0.61,0.23,0.93,0.22
					c0.33,0.01,0.65-0.06,0.94-0.22c0.25-0.14,0.45-0.34,0.6-0.58c0.15-0.25,0.26-0.53,0.32-0.82c0.06-0.31,0.09-0.62,0.09-0.94
					c0-0.32-0.03-0.63-0.09-0.94c-0.05-0.29-0.16-0.57-0.32-0.82c-0.15-0.24-0.36-0.44-0.6-0.58c-0.29-0.16-0.61-0.24-0.94-0.23
					c-0.62-0.03-1.2,0.28-1.52,0.8c-0.16,0.25-0.26,0.53-0.32,0.82c-0.06,0.31-0.09,0.63-0.09,0.94
					C38.34,8.04,38.37,8.36,38.43,8.67L38.43,8.67z"/>
				<path id="패스_8540" class="st0" d="M45.44,2.48V0.67h2.2v1.81H45.44z M47.64,3.72v8h-2.2v-8H47.64z"/>
				<path id="패스_8541" class="st0" d="M50.76,9.74c0.09,0.17,0.22,0.31,0.38,0.42c0.16,0.11,0.34,0.19,0.53,0.24
					c0.2,0.05,0.42,0.08,0.63,0.08c0.16,0,0.33-0.02,0.49-0.05c0.16-0.03,0.32-0.09,0.46-0.17c0.14-0.08,0.26-0.18,0.35-0.31
					c0.1-0.14,0.15-0.32,0.14-0.49c0-0.33-0.22-0.58-0.66-0.74c-0.6-0.21-1.21-0.38-1.83-0.5c-0.32-0.07-0.63-0.16-0.94-0.26
					c-0.29-0.09-0.56-0.22-0.81-0.39c-0.23-0.15-0.43-0.36-0.57-0.6c-0.15-0.27-0.23-0.58-0.22-0.89c-0.02-0.44,0.09-0.88,0.3-1.27
					c0.2-0.32,0.47-0.59,0.8-0.78c0.35-0.2,0.72-0.33,1.12-0.4c0.42-0.08,0.84-0.12,1.27-0.11c0.42,0,0.85,0.04,1.26,0.12
					c0.39,0.07,0.76,0.22,1.09,0.42c0.32,0.2,0.6,0.46,0.8,0.78c0.23,0.37,0.36,0.8,0.38,1.23h-2.09c0.01-0.35-0.17-0.68-0.48-0.86
					c-0.32-0.16-0.67-0.23-1.02-0.22c-0.13,0-0.27,0.01-0.4,0.02c-0.14,0.01-0.27,0.05-0.39,0.1c-0.12,0.05-0.22,0.13-0.3,0.23
					c-0.09,0.11-0.13,0.25-0.12,0.39c0,0.18,0.08,0.36,0.22,0.48c0.17,0.14,0.36,0.24,0.57,0.3c0.26,0.09,0.53,0.16,0.8,0.21
					c0.3,0.06,0.6,0.13,0.91,0.2c0.32,0.07,0.63,0.16,0.94,0.26c0.29,0.1,0.56,0.23,0.81,0.41c0.23,0.17,0.43,0.38,0.57,0.63
					c0.15,0.29,0.23,0.61,0.22,0.94c0.04,0.88-0.4,1.72-1.15,2.18c-0.36,0.22-0.75,0.38-1.17,0.46c-0.44,0.09-0.89,0.13-1.34,0.13
					c-0.46,0-0.91-0.05-1.36-0.14c-0.42-0.08-0.82-0.24-1.18-0.46c-0.35-0.22-0.64-0.51-0.85-0.86c-0.24-0.41-0.36-0.87-0.36-1.34
					h2.09C50.61,9.34,50.66,9.55,50.76,9.74z"/>
				<path id="패스_8542" class="st0" d="M59.11,9.81c0.74,0.58,1.77,0.64,2.57,0.15c0.27-0.16,0.48-0.41,0.59-0.7h1.94
					c-0.22,0.83-0.72,1.56-1.43,2.06c-0.7,0.43-1.5,0.64-2.32,0.62c-0.58,0.01-1.16-0.09-1.7-0.3c-0.49-0.19-0.93-0.48-1.29-0.86
					c-0.36-0.38-0.64-0.84-0.81-1.33c-0.2-0.55-0.29-1.12-0.29-1.7c-0.01-0.57,0.09-1.14,0.29-1.67c0.37-1.01,1.14-1.81,2.13-2.23
					c0.53-0.22,1.09-0.33,1.66-0.33c0.62-0.01,1.23,0.12,1.78,0.4c0.49,0.25,0.92,0.61,1.25,1.06c0.33,0.46,0.57,0.97,0.7,1.52
					c0.15,0.58,0.2,1.18,0.15,1.78h-5.77C58.55,8.83,58.74,9.38,59.11,9.81z M61.6,5.59c-0.32-0.31-0.76-0.47-1.2-0.43
					c-0.3-0.01-0.6,0.05-0.88,0.18c-0.21,0.11-0.4,0.26-0.56,0.44c-0.13,0.17-0.23,0.35-0.29,0.56c-0.05,0.17-0.09,0.35-0.1,0.53
					h3.58C62.08,6.4,61.89,5.96,61.6,5.59L61.6,5.59z"/>
				<path id="패스_8543" class="st0" d="M67.7,9.34v2.39h-2.43V9.34L67.7,9.34z"/>
				<path id="패스_8544" class="st0" d="M77.86,0.67c0.68-0.01,1.35,0.11,1.99,0.34c0.6,0.22,1.15,0.57,1.6,1.02
					c0.47,0.48,0.83,1.06,1.05,1.7c0.27,0.77,0.4,1.58,0.38,2.4c0.01,0.75-0.1,1.51-0.31,2.23c-0.19,0.65-0.51,1.25-0.94,1.77
					c-0.43,0.5-0.96,0.9-1.56,1.17c-0.7,0.3-1.45,0.44-2.21,0.43H73.1V0.67H77.86z M77.69,9.68c0.35,0,0.69-0.06,1.02-0.17
					c0.33-0.12,0.64-0.31,0.88-0.57c0.28-0.29,0.49-0.65,0.62-1.03c0.17-0.5,0.25-1.02,0.23-1.55c0.01-0.51-0.05-1.01-0.16-1.51
					c-0.09-0.42-0.28-0.81-0.53-1.15c-0.26-0.33-0.6-0.58-0.98-0.73c-0.48-0.18-0.99-0.27-1.51-0.26h-1.73v6.97L77.69,9.68z"/>
				<path id="패스_8545" class="st0" d="M86.22,9.81c0.74,0.58,1.77,0.64,2.57,0.15c0.27-0.16,0.48-0.41,0.59-0.7h1.93
					c-0.22,0.83-0.72,1.56-1.42,2.06c-0.7,0.43-1.5,0.64-2.32,0.62c-0.58,0.01-1.16-0.09-1.7-0.3c-0.49-0.19-0.93-0.48-1.29-0.86
					c-0.36-0.38-0.64-0.84-0.81-1.33c-0.2-0.55-0.29-1.12-0.29-1.7c-0.01-0.57,0.09-1.14,0.29-1.67c0.18-0.5,0.47-0.96,0.84-1.34
					c0.37-0.38,0.81-0.68,1.29-0.89C86.43,3.61,87,3.5,87.57,3.51c0.62-0.01,1.23,0.12,1.78,0.4c0.49,0.25,0.92,0.61,1.25,1.06
					c0.33,0.46,0.57,0.97,0.7,1.52c0.15,0.58,0.2,1.18,0.15,1.78h-5.78C85.66,8.83,85.85,9.38,86.22,9.81z M88.71,5.59
					c-0.32-0.31-0.76-0.47-1.2-0.43c-0.3-0.01-0.6,0.05-0.87,0.18c-0.21,0.11-0.4,0.26-0.56,0.44c-0.13,0.17-0.23,0.35-0.29,0.56
					c-0.05,0.17-0.09,0.35-0.1,0.53h3.57C89.2,6.4,89.01,5.96,88.71,5.59L88.71,5.59z"/>
				<path id="패스_8546" class="st0" d="M96.94,6.55v1.89h-4.66V6.55H96.94z"/>
				<path id="패스_8547" class="st0" d="M104.32,0.67c0.46-0.01,0.91,0.08,1.34,0.24c0.38,0.15,0.73,0.37,1.02,0.66
					c0.28,0.27,0.5,0.6,0.65,0.97c0.15,0.38,0.23,0.78,0.22,1.18c0.02,0.59-0.13,1.17-0.41,1.69c-0.31,0.5-0.78,0.89-1.34,1.08v0.03
					c0.27,0.07,0.53,0.2,0.74,0.38c0.2,0.17,0.36,0.38,0.48,0.61c0.13,0.24,0.22,0.5,0.27,0.77c0.06,0.28,0.1,0.56,0.12,0.84
					c0.01,0.17,0.02,0.38,0.03,0.62s0.03,0.48,0.05,0.73c0.02,0.24,0.07,0.47,0.12,0.7c0.05,0.2,0.13,0.39,0.26,0.57h-2.43
					c-0.15-0.4-0.23-0.83-0.25-1.26c-0.03-0.48-0.08-0.95-0.14-1.39c-0.04-0.47-0.22-0.91-0.53-1.27c-0.37-0.3-0.84-0.44-1.32-0.4
					h-2.43v4.32h-2.43V0.67H104.32z M103.46,5.67c0.45,0.03,0.9-0.1,1.25-0.37c0.31-0.32,0.46-0.76,0.42-1.21
					c0.04-0.43-0.11-0.86-0.42-1.17c-0.36-0.27-0.81-0.4-1.25-0.36h-2.66v3.11L103.46,5.67z"/>
				<path id="패스_8548" class="st0" d="M111.2,9.81c0.74,0.58,1.77,0.64,2.57,0.15c0.27-0.16,0.48-0.41,0.59-0.7h1.93
					c-0.22,0.83-0.72,1.56-1.42,2.06c-0.7,0.43-1.5,0.64-2.32,0.62c-0.58,0.01-1.16-0.09-1.7-0.3c-0.49-0.19-0.93-0.48-1.29-0.86
					c-0.36-0.38-0.64-0.84-0.81-1.33c-0.2-0.55-0.29-1.12-0.29-1.7c-0.01-0.57,0.09-1.14,0.29-1.67c0.18-0.5,0.47-0.96,0.84-1.34
					c0.37-0.38,0.81-0.68,1.29-0.89c0.53-0.22,1.09-0.33,1.66-0.33c0.62-0.01,1.23,0.12,1.78,0.4c0.49,0.25,0.92,0.61,1.25,1.06
					c0.33,0.46,0.57,0.97,0.7,1.52c0.15,0.58,0.2,1.18,0.16,1.78h-5.77C110.63,8.83,110.83,9.38,111.2,9.81z M113.68,5.59
					c-0.32-0.31-0.76-0.47-1.2-0.43c-0.3-0.01-0.6,0.05-0.88,0.18c-0.21,0.11-0.4,0.26-0.56,0.44c-0.13,0.17-0.23,0.35-0.29,0.56
					c-0.05,0.17-0.09,0.35-0.1,0.53h3.58C114.17,6.4,113.98,5.96,113.68,5.59L113.68,5.59z"/>
				<path id="패스_8549" class="st0" d="M119.25,11.73l-2.74-8h2.31l1.69,5.47h0.03l1.69-5.47h2.18l-2.71,8H119.25z"/>
				<path id="패스_8550" class="st0" d="M127.21,9.81c0.74,0.58,1.77,0.64,2.57,0.15c0.27-0.16,0.48-0.41,0.59-0.7h1.93
					c-0.22,0.83-0.72,1.56-1.42,2.06c-0.7,0.43-1.5,0.64-2.32,0.62c-0.58,0.01-1.16-0.09-1.7-0.3c-0.49-0.19-0.93-0.48-1.29-0.86
					c-0.36-0.38-0.64-0.84-0.81-1.33c-0.2-0.55-0.29-1.12-0.29-1.7c-0.01-0.57,0.09-1.14,0.29-1.67c0.37-1.01,1.14-1.81,2.13-2.23
					c0.53-0.22,1.09-0.33,1.66-0.33c0.62-0.01,1.23,0.12,1.78,0.4c0.49,0.25,0.92,0.61,1.25,1.06c0.33,0.46,0.57,0.97,0.7,1.52
					c0.15,0.58,0.2,1.18,0.15,1.78h-5.78C126.64,8.83,126.84,9.38,127.21,9.81z M129.69,5.59c-0.32-0.31-0.76-0.47-1.2-0.43
					c-0.3-0.01-0.6,0.05-0.87,0.18c-0.22,0.11-0.41,0.26-0.56,0.44c-0.13,0.17-0.23,0.35-0.29,0.56c-0.05,0.17-0.09,0.35-0.1,0.53
					h3.58C130.18,6.4,129.99,5.96,129.69,5.59z"/>
				<path id="패스_8551" class="st0" d="M135.37,3.72v1.49h0.03c0.21-0.5,0.57-0.93,1.02-1.23c0.23-0.15,0.47-0.27,0.73-0.35
					c0.26-0.08,0.53-0.12,0.8-0.12c0.16,0,0.32,0.03,0.48,0.08v2.04c-0.1-0.02-0.23-0.04-0.37-0.05c-0.14-0.02-0.28-0.02-0.42-0.02
					c-0.35-0.01-0.7,0.06-1.02,0.2c-0.27,0.12-0.5,0.31-0.67,0.55c-0.18,0.24-0.3,0.52-0.36,0.81c-0.07,0.33-0.11,0.67-0.11,1.01
					v3.61h-2.2v-8H135.37z"/>
				<path id="패스_8552" class="st0" d="M141.03,0.67V4.7h0.03c0.26-0.41,0.64-0.72,1.09-0.9c0.45-0.19,0.94-0.29,1.43-0.29
					c0.86,0,1.68,0.37,2.25,1.01c0.34,0.38,0.6,0.83,0.77,1.31c0.39,1.23,0.39,2.56,0,3.79c-0.17,0.48-0.43,0.93-0.77,1.31
					c-0.58,0.64-1.39,1-2.25,1.01c-0.54,0.01-1.08-0.09-1.58-0.28c-0.45-0.18-0.83-0.51-1.05-0.94h-0.03v1.02h-2.09V0.67H141.03z
					 M144.6,6.75c-0.07-0.29-0.18-0.57-0.34-0.82c-0.15-0.23-0.35-0.42-0.58-0.57c-0.53-0.28-1.15-0.28-1.68,0
					c-0.24,0.14-0.44,0.33-0.59,0.57c-0.16,0.25-0.27,0.53-0.34,0.82c-0.07,0.32-0.11,0.65-0.11,0.98c0,0.32,0.04,0.64,0.11,0.96
					c0.06,0.29,0.18,0.57,0.34,0.82c0.15,0.23,0.35,0.43,0.59,0.57c0.52,0.28,1.16,0.28,1.68,0c0.23-0.14,0.43-0.33,0.58-0.57
					c0.16-0.25,0.28-0.53,0.34-0.82c0.07-0.31,0.11-0.64,0.11-0.96C144.7,7.4,144.67,7.07,144.6,6.75z"/>
				<path id="패스_8553" class="st0" d="M150.36,9.34v2.39h-2.43V9.34L150.36,9.34z"/>
				<path id="패스_8554" class="st0" d="M160.51,0.67c0.68-0.01,1.35,0.11,1.99,0.34c0.6,0.22,1.15,0.57,1.6,1.02
					c0.47,0.48,0.83,1.06,1.05,1.7c0.27,0.77,0.4,1.58,0.38,2.4c0.01,0.75-0.1,1.51-0.31,2.23c-0.19,0.65-0.51,1.25-0.94,1.77
					c-0.43,0.5-0.96,0.9-1.56,1.17c-0.7,0.3-1.45,0.44-2.21,0.43h-4.77V0.67H160.51z M160.34,9.68c0.35,0,0.69-0.06,1.02-0.17
					c0.34-0.12,0.64-0.31,0.88-0.57c0.28-0.3,0.49-0.65,0.62-1.03c0.17-0.5,0.25-1.02,0.23-1.55c0.01-0.51-0.05-1.01-0.16-1.51
					c-0.09-0.42-0.28-0.81-0.54-1.15c-0.26-0.33-0.6-0.58-0.98-0.73c-0.48-0.18-0.99-0.27-1.51-0.26h-1.73v6.97L160.34,9.68z"/>
				<path id="패스_8555" class="st0" d="M168.87,9.81c0.74,0.58,1.77,0.64,2.57,0.15c0.27-0.16,0.48-0.41,0.59-0.7h1.93
					c-0.22,0.83-0.72,1.56-1.42,2.06c-0.7,0.43-1.5,0.64-2.32,0.62c-0.58,0.01-1.16-0.09-1.7-0.3c-0.49-0.19-0.93-0.48-1.29-0.86
					c-0.36-0.38-0.64-0.84-0.81-1.33c-0.2-0.54-0.29-1.12-0.29-1.7c-0.01-0.57,0.09-1.14,0.29-1.67c0.37-1.01,1.14-1.81,2.13-2.23
					c0.53-0.22,1.09-0.33,1.66-0.33c0.62-0.01,1.23,0.12,1.78,0.4c0.49,0.25,0.92,0.61,1.25,1.06c0.33,0.46,0.57,0.97,0.7,1.52
					c0.15,0.58,0.2,1.18,0.15,1.78h-5.78C168.31,8.83,168.5,9.38,168.87,9.81z M171.36,5.59c-0.32-0.31-0.76-0.47-1.2-0.43
					c-0.3-0.01-0.6,0.05-0.87,0.18c-0.21,0.11-0.4,0.26-0.56,0.44c-0.13,0.16-0.23,0.35-0.29,0.56c-0.05,0.17-0.09,0.35-0.1,0.53
					h3.58C171.85,6.4,171.65,5.96,171.36,5.59L171.36,5.59z"/>
				<path id="패스_8556" class="st0" d="M179.59,6.55v1.89h-4.66V6.55H179.59z"/>
				<path id="패스_8557" class="st0" d="M183.41,11.73l-3.58-11.06h2.49l2.46,7.77h0.03l2.49-7.77h2.51l-3.67,11.06H183.41z"/>
				<path id="패스_8558" class="st0" d="M189.26,5.99c0.36-1,1.14-1.8,2.14-2.18c0.54-0.21,1.12-0.31,1.7-0.3
					c0.58-0.01,1.16,0.09,1.71,0.3c1,0.38,1.78,1.18,2.14,2.18c0.2,0.56,0.3,1.15,0.29,1.74c0.01,0.59-0.09,1.18-0.29,1.73
					c-0.18,0.5-0.47,0.95-0.84,1.32c-0.37,0.37-0.82,0.66-1.31,0.85c-0.55,0.2-1.13,0.3-1.71,0.29c-0.58,0.01-1.16-0.09-1.7-0.29
					c-0.49-0.19-0.93-0.47-1.3-0.85c-0.37-0.38-0.65-0.83-0.84-1.32c-0.2-0.55-0.3-1.14-0.29-1.73
					C188.96,7.14,189.06,6.55,189.26,5.99z M191.26,8.67c0.06,0.29,0.16,0.57,0.32,0.82c0.15,0.24,0.35,0.44,0.6,0.58
					c0.28,0.15,0.61,0.23,0.93,0.22c0.33,0.01,0.65-0.06,0.94-0.22c0.25-0.14,0.45-0.34,0.6-0.58c0.15-0.25,0.26-0.53,0.32-0.82
					c0.06-0.31,0.09-0.62,0.09-0.94c0-0.32-0.03-0.63-0.09-0.94c-0.05-0.29-0.16-0.57-0.32-0.82c-0.15-0.24-0.36-0.44-0.6-0.58
					c-0.29-0.16-0.61-0.24-0.94-0.23c-0.62-0.03-1.2,0.28-1.52,0.8c-0.16,0.25-0.26,0.53-0.32,0.82c-0.06,0.31-0.09,0.63-0.09,0.94
					C191.17,8.04,191.2,8.36,191.26,8.67L191.26,8.67z"/>
				<path id="패스_8559" class="st0" d="M198.28,2.48V0.67h2.2v1.81H198.28z M200.48,3.72v8h-2.2v-8H200.48z"/>
				<path id="패스_8560" class="st0" d="M205.57,5.16c-0.31-0.01-0.62,0.07-0.88,0.24c-0.24,0.16-0.44,0.37-0.58,0.62
					c-0.15,0.26-0.26,0.54-0.32,0.84c-0.06,0.3-0.09,0.6-0.09,0.9c0,0.3,0.03,0.59,0.09,0.88c0.06,0.28,0.16,0.56,0.3,0.81
					c0.14,0.24,0.33,0.45,0.57,0.6c0.26,0.16,0.56,0.24,0.87,0.23c0.45,0.03,0.89-0.13,1.22-0.44c0.3-0.33,0.49-0.74,0.53-1.18h2.12
					c-0.08,0.94-0.52,1.81-1.24,2.43c-0.75,0.58-1.67,0.88-2.62,0.84c-0.56,0.01-1.12-0.09-1.65-0.3c-0.48-0.19-0.92-0.48-1.28-0.84
					c-0.36-0.37-0.64-0.81-0.82-1.29c-0.2-0.53-0.3-1.09-0.29-1.65c-0.01-0.59,0.09-1.17,0.27-1.73c0.17-0.51,0.44-0.98,0.8-1.38
					c0.36-0.39,0.8-0.7,1.29-0.91c0.55-0.23,1.14-0.34,1.73-0.33c0.46,0,0.92,0.06,1.37,0.19c0.42,0.12,0.82,0.31,1.18,0.57
					c0.74,0.53,1.19,1.37,1.21,2.28h-2.15c-0.05-0.81-0.75-1.43-1.56-1.38C205.61,5.15,205.59,5.16,205.57,5.16z"/>
				<path id="패스_8561" class="st0" d="M212.52,9.81c0.74,0.58,1.77,0.64,2.57,0.15c0.27-0.16,0.48-0.41,0.59-0.7h1.93
					c-0.22,0.83-0.72,1.56-1.42,2.06c-0.7,0.43-1.5,0.64-2.32,0.62c-0.58,0.01-1.16-0.09-1.7-0.3c-0.49-0.19-0.93-0.48-1.29-0.86
					c-0.36-0.38-0.64-0.84-0.81-1.33c-0.2-0.54-0.29-1.12-0.29-1.7c-0.01-0.57,0.09-1.14,0.29-1.67c0.37-1.01,1.14-1.81,2.13-2.23
					c0.53-0.22,1.09-0.33,1.66-0.33c0.62-0.01,1.23,0.12,1.78,0.4c0.49,0.25,0.92,0.61,1.25,1.06c0.33,0.46,0.57,0.97,0.7,1.52
					c0.15,0.58,0.2,1.18,0.15,1.78h-5.77C211.96,8.83,212.15,9.38,212.52,9.81z M215.01,5.59c-0.32-0.31-0.76-0.47-1.2-0.43
					c-0.3-0.01-0.6,0.05-0.87,0.18c-0.21,0.11-0.4,0.26-0.56,0.44c-0.13,0.16-0.23,0.35-0.29,0.56c-0.05,0.17-0.09,0.35-0.1,0.53
					h3.58C215.49,6.4,215.3,5.96,215.01,5.59L215.01,5.59z"/>
				<path id="패스_8562" class="st0" d="M221.11,9.34v2.39h-2.43V9.34L221.11,9.34z"/>
				<path id="패스_8563" class="st0" d="M60.49,20.18l4.13,11.06H62.1l-0.84-2.46h-4.13l-0.87,2.46h-2.45L58,20.18H60.49z
					 M60.63,26.96l-1.39-4.05H59.2l-1.44,4.05H60.63z"/>
				<path id="패스_8564" class="st0" d="M67.15,20.18v11.06h-2.2V20.18H67.15z"/>
				<path id="패스_8565" class="st0" d="M70.68,20.18v11.06h-2.2V20.18H70.68z"/>
				<path id="패스_8566" class="st0" d="M75.85,21.99v-1.81h2.2v1.81H75.85z M78.05,23.23v8h-2.2v-8H78.05z"/>
				<path id="패스_8567" class="st0" d="M81.41,23.23v1.11h0.05c0.25-0.44,0.63-0.79,1.08-1.01c0.42-0.21,0.89-0.31,1.36-0.32
					c0.49-0.02,0.99,0.06,1.45,0.24c0.35,0.14,0.66,0.37,0.89,0.67c0.23,0.31,0.38,0.66,0.46,1.04c0.09,0.45,0.14,0.9,0.13,1.36
					v4.92h-2.2v-4.52c0.03-0.51-0.07-1.02-0.31-1.48c-0.25-0.35-0.67-0.53-1.1-0.49c-0.49-0.04-0.98,0.15-1.3,0.53
					c-0.31,0.53-0.45,1.14-0.4,1.76v4.2h-2.2v-8L81.41,23.23z"/>
				<path id="패스_8568" class="st0" d="M92,23.46c0.23-0.68,0.6-1.31,1.07-1.85c0.47-0.53,1.06-0.96,1.71-1.24
					c1.47-0.6,3.11-0.6,4.58,0c0.65,0.29,1.23,0.71,1.7,1.24c0.47,0.54,0.84,1.17,1.07,1.85c0.25,0.74,0.38,1.52,0.37,2.3
					c0.01,0.77-0.12,1.53-0.37,2.25c-0.23,0.67-0.6,1.29-1.07,1.82c-0.47,0.52-1.05,0.94-1.7,1.21c-1.47,0.59-3.11,0.59-4.58,0
					c-0.65-0.28-1.23-0.69-1.71-1.21c-0.47-0.53-0.84-1.15-1.07-1.82c-0.25-0.72-0.38-1.49-0.37-2.25
					C91.62,24.97,91.75,24.2,92,23.46z M94.22,27.11c0.1,0.42,0.28,0.82,0.52,1.19c0.24,0.35,0.56,0.64,0.93,0.84
					c0.88,0.42,1.91,0.42,2.79,0c0.37-0.2,0.69-0.49,0.93-0.84c0.24-0.36,0.42-0.76,0.52-1.19c0.11-0.44,0.16-0.9,0.16-1.36
					c0-0.47-0.05-0.95-0.16-1.41c-0.1-0.43-0.28-0.84-0.52-1.22c-0.24-0.35-0.56-0.65-0.93-0.85c-0.88-0.42-1.91-0.42-2.79,0
					c-0.37,0.2-0.69,0.5-0.93,0.85c-0.24,0.37-0.42,0.78-0.52,1.22c-0.11,0.46-0.16,0.93-0.16,1.41
					C94.06,26.21,94.11,26.66,94.22,27.11L94.22,27.11z"/>
				<path id="패스_8569" class="st0" d="M105.55,23.23v1.11h0.05c0.25-0.44,0.63-0.79,1.08-1.01c0.42-0.21,0.89-0.31,1.36-0.32
					c0.49-0.02,0.99,0.06,1.45,0.24c0.35,0.14,0.66,0.37,0.89,0.67c0.23,0.31,0.38,0.66,0.46,1.04c0.09,0.45,0.14,0.9,0.13,1.36
					v4.92h-2.2v-4.52c0.03-0.51-0.07-1.02-0.31-1.48c-0.25-0.35-0.67-0.53-1.1-0.49c-0.49-0.04-0.98,0.15-1.3,0.53
					c-0.31,0.53-0.45,1.14-0.4,1.76v4.2h-2.2v-8L105.55,23.23z"/>
				<path id="패스_8570" class="st0" d="M114.53,29.32c0.74,0.58,1.77,0.64,2.57,0.15c0.27-0.16,0.48-0.41,0.59-0.7h1.93
					c-0.22,0.83-0.72,1.56-1.42,2.06c-0.7,0.43-1.5,0.64-2.32,0.62c-0.58,0.01-1.16-0.09-1.7-0.3c-0.49-0.19-0.92-0.48-1.29-0.86
					c-0.36-0.38-0.63-0.84-0.81-1.33c-0.2-0.54-0.29-1.12-0.29-1.7c0-0.57,0.1-1.14,0.29-1.67c0.37-1.01,1.14-1.81,2.13-2.23
					c0.53-0.22,1.09-0.33,1.66-0.33c0.62-0.01,1.23,0.12,1.78,0.39c0.49,0.25,0.92,0.61,1.25,1.06c0.33,0.46,0.57,0.97,0.7,1.52
					c0.15,0.58,0.2,1.18,0.15,1.78h-5.78C113.96,28.34,114.16,28.89,114.53,29.32z M117.01,25.1c-0.32-0.31-0.76-0.47-1.2-0.43
					c-0.3-0.01-0.6,0.05-0.87,0.18c-0.22,0.11-0.41,0.26-0.56,0.44c-0.13,0.17-0.23,0.35-0.29,0.56c-0.05,0.17-0.09,0.35-0.1,0.52
					h3.58C117.5,25.91,117.31,25.47,117.01,25.1L117.01,25.1z"/>
				<path id="패스_8571" class="st0" d="M129.65,20.18c0.6-0.02,1.2,0.09,1.77,0.3c0.45,0.18,0.85,0.45,1.18,0.8
					c0.3,0.32,0.53,0.71,0.67,1.13c0.28,0.85,0.28,1.77,0,2.62c-0.14,0.42-0.36,0.81-0.67,1.14c-0.33,0.35-0.74,0.62-1.18,0.8
					c-0.56,0.22-1.16,0.32-1.77,0.3h-2.55v3.96h-2.43V20.18H129.65z M128.99,25.38c0.27,0,0.54-0.02,0.8-0.06
					c0.24-0.03,0.47-0.12,0.68-0.24c0.2-0.12,0.36-0.29,0.47-0.5c0.23-0.54,0.23-1.16,0-1.7c-0.11-0.21-0.27-0.38-0.47-0.5
					c-0.21-0.12-0.44-0.21-0.68-0.24c-0.27-0.04-0.54-0.06-0.8-0.06h-1.89v3.31L128.99,25.38z"/>
				<path id="패스_8572" class="st0" d="M136.56,20.18v11.06h-2.2V20.18H136.56z"/>
				<path id="패스_8573" class="st0" d="M143.25,31.24v-1.12h-0.05c-0.25,0.44-0.63,0.79-1.08,1.01c-0.43,0.2-0.89,0.31-1.36,0.31
					c-0.49,0.02-0.98-0.06-1.45-0.23c-0.35-0.14-0.66-0.36-0.89-0.66c-0.23-0.31-0.38-0.66-0.46-1.04c-0.09-0.45-0.14-0.9-0.13-1.35
					v-4.92h2.2v4.52c-0.03,0.51,0.07,1.02,0.31,1.48c0.25,0.35,0.67,0.54,1.1,0.49c0.49,0.04,0.98-0.16,1.3-0.54
					c0.31-0.53,0.45-1.14,0.4-1.76v-4.2h2.2v8L143.25,31.24z"/>
				<path id="패스_8574" class="st0" d="M155.6,21.99v-1.81h2.2v1.81H155.6z M157.8,23.23v8h-2.2v-8H157.8z"/>
				<path id="패스_8575" class="st0" d="M161.16,23.23v1.11h0.05c0.25-0.44,0.63-0.79,1.08-1.01c0.42-0.21,0.89-0.31,1.36-0.32
					c0.49-0.02,0.99,0.06,1.45,0.24c0.35,0.14,0.66,0.37,0.89,0.67c0.23,0.31,0.38,0.66,0.46,1.04c0.09,0.45,0.14,0.9,0.13,1.36
					v4.92h-2.2v-4.52c0.03-0.51-0.07-1.02-0.31-1.48c-0.25-0.35-0.67-0.53-1.1-0.49c-0.49-0.04-0.98,0.16-1.3,0.53
					c-0.31,0.53-0.45,1.14-0.4,1.76v4.2h-2.2v-8L161.16,23.23z"/>
				<path id="패스_8576" class="st0" d="M154.11,31.82c-0.09,0.42-0.29,0.82-0.57,1.15c-0.34,0.39-0.77,0.7-1.25,0.91
					c-0.7,0.28-1.45,0.4-2.2,0.37c-0.4,0-0.81-0.05-1.2-0.15c-0.39-0.09-0.77-0.25-1.11-0.46c-0.33-0.2-0.62-0.48-0.84-0.8
					c-0.23-0.35-0.36-0.75-0.38-1.17h2.18c0.06,0.36,0.28,0.67,0.6,0.86c0.32,0.17,0.68,0.25,1.04,0.24
					c0.52,0.04,1.02-0.16,1.36-0.56c0.29-0.41,0.44-0.91,0.41-1.41v-1.05h-0.03c-0.23,0.41-0.58,0.74-1.01,0.94
					c-0.43,0.2-0.91,0.3-1.39,0.3c-0.53,0.01-1.06-0.09-1.55-0.32c-0.42-0.2-0.79-0.5-1.07-0.87c-0.29-0.38-0.5-0.82-0.61-1.29
					c-0.13-0.51-0.2-1.03-0.19-1.55c0-0.51,0.07-1.01,0.22-1.49c0.14-0.46,0.36-0.89,0.66-1.27c0.29-0.37,0.66-0.67,1.08-0.87
					c0.46-0.22,0.97-0.34,1.48-0.33c0.48-0.01,0.95,0.09,1.39,0.29c0.42,0.22,0.77,0.57,1,0.99h0.03v-1.07h2.09v7.49
					C154.23,31.09,154.19,31.46,154.11,31.82z M151.1,29.16c0.23-0.12,0.43-0.29,0.59-0.49c0.16-0.21,0.27-0.45,0.35-0.71
					c0.08-0.27,0.12-0.55,0.12-0.83c0-0.32-0.03-0.63-0.09-0.94c-0.06-0.28-0.16-0.54-0.31-0.78c-0.14-0.23-0.34-0.41-0.57-0.54
					c-0.28-0.14-0.59-0.21-0.9-0.2c-0.28-0.01-0.55,0.06-0.8,0.19c-0.22,0.12-0.41,0.29-0.56,0.5c-0.15,0.22-0.26,0.47-0.33,0.73
					c-0.07,0.28-0.1,0.57-0.1,0.86c0,0.29,0.03,0.58,0.08,0.86c0.05,0.27,0.15,0.53,0.29,0.77c0.14,0.23,0.33,0.42,0.55,0.56
					c0.26,0.15,0.55,0.23,0.85,0.22C150.56,29.35,150.84,29.29,151.1,29.16L151.1,29.16z"/>
			</g>
			<g id="그룹_5251" transform="translate(27.996 43.068)">
				<g id="그룹_5248">
					<path id="패스_8577" class="st0" d="M5.11,6.41l-1,2.78h2.02l-1-2.78H5.11z"/>
					<path id="패스_8578" class="st0" d="M12.31,0.67H3.46c-1.73,0-3.12,1.4-3.13,3.13v8.85c0,1.73,1.4,3.12,3.13,3.13h8.85
						c1.73-0.01,3.12-1.4,3.13-3.13V3.8C15.43,2.07,14.04,0.67,12.31,0.67z M7.31,11.79h-1v-1.61H3.93v1.61H2.93V9.5l1.69-4.67h0.99
						L7.3,9.5L7.31,11.79z M12.77,5.83h-1.69v4.96h1.69v0.99H8.4V10.8h1.69V5.83H8.4V4.84h4.37L12.77,5.83z"/>
				</g>
				<g id="그룹_5250" transform="translate(24.226 3.568)">
					<g id="그룹_5249">
						<path id="패스_8579" class="st0" d="M5.84,2.92v0.75c0,1.24-1,2.25-2.23,2.25c-0.01,0-0.01,0-0.02,0h-2v3.5H0.34V0.67h3.25
							c1.24-0.01,2.25,1,2.25,2.23C5.84,2.91,5.84,2.91,5.84,2.92z M4.59,2.92c0.01-0.55-0.43-0.99-0.98-1c-0.01,0-0.02,0-0.02,0h-2
							v2.75h2c0.55,0.01,0.99-0.43,1-0.98c0-0.01,0-0.02,0-0.02V2.92z"/>
						<path id="패스_8580" class="st0" d="M9.85,9.43C8.6,9.42,7.6,8.41,7.6,7.16V2.92c0-1.24,1.01-2.25,2.25-2.25c0,0,0,0,0,0h1
							c1.24-0.01,2.25,0.99,2.25,2.23c0,0.01,0,0.01,0,0.02v4.24c0,1.25-1.01,2.26-2.25,2.27L9.85,9.43z M11.85,7.16V2.92
							c0.01-0.55-0.43-0.99-0.98-1c-0.01,0-0.02,0-0.02,0h-1c-0.55,0-1,0.45-1,1v4.24c0,0.55,0.45,1,1,1h1
							C11.4,8.16,11.85,7.71,11.85,7.16C11.85,7.16,11.85,7.16,11.85,7.16L11.85,7.16z"/>
						<path id="패스_8581" class="st0" d="M20.36,0.67v2.88l-0.75,5.88h-1l-1-3.74l-1,3.74h-1l-0.75-5.88V0.67h1.25v2.5l0.3,3.69
							l0.69-3.94h1.02l0.69,3.94l0.3-3.69v-2.5H20.36z"/>
						<path id="패스_8582" class="st0" d="M23.37,1.92v2.29h3.75v1.25h-3.75v2.71h4.26v1.25h-5.51V0.67h5.51v1.25L23.37,1.92z"/>
						<path id="패스_8583" class="st0" d="M33.24,5.84l1.64,3.59H33.5l-1.59-3.5h-1.29v3.5h-1.25V0.67h3.25
							c1.24-0.01,2.25,0.99,2.25,2.23c0,0.01,0,0.01,0,0.02v0.75C34.89,4.68,34.21,5.57,33.24,5.84z M33.63,2.92
							c0.01-0.55-0.43-0.99-0.98-1c-0.01,0-0.02,0-0.02,0h-2v2.75h2c0.55,0.01,0.99-0.43,1-0.98c0-0.01,0-0.02,0-0.02V2.92z"/>
						<path id="패스_8584" class="st0" d="M37.89,1.92v2.29h3.75v1.25h-3.75v2.71h4.26v1.25h-5.51V0.67h5.51v1.25L37.89,1.92z"/>
						<path id="패스_8585" class="st0" d="M49.4,2.92v4.24c0,1.24-1.01,2.26-2.25,2.27h-3.25V0.66h3.25
							C48.39,0.66,49.4,1.67,49.4,2.92C49.4,2.92,49.4,2.92,49.4,2.92z M48.15,2.92c0-0.55-0.45-1-1-1h-2v6.24h2c0.55,0,1-0.45,1-1
							V2.92z"/>
						<path id="패스_8586" class="st0" d="M62.92,6.68v0.5c0.01,1.24-0.99,2.25-2.23,2.25c-0.01,0-0.01,0-0.02,0h-3.25V0.67h3
							c1.24-0.01,2.25,0.99,2.25,2.23c0,0.01,0,0.01,0,0.02v0.5c0,0.55-0.2,1.09-0.58,1.5C62.61,5.35,62.92,6,62.92,6.68z
							 M58.66,1.92v2.5h1.75c0.55,0.01,0.99-0.43,1-0.98c0-0.01,0-0.01,0-0.02v-0.5c0.01-0.55-0.43-0.99-0.98-1
							c-0.01,0-0.02,0-0.02,0H58.66z M61.66,6.68c0.01-0.55-0.43-0.99-0.98-1c-0.01,0-0.02,0-0.02,0h-2v2.5h2
							c0.55,0.01,0.99-0.43,1-0.98c0-0.01,0-0.02,0-0.02V6.68z"/>
						<path id="패스_8587" class="st0" d="M70.18,0.67v2.85l-2.13,2.79v3.12H66.8V6.31l-2.13-2.64v-3h1.25v2.55l1.48,1.84h0.02
							l1.5-1.96V0.67H70.18z"/>
						<path id="패스_8588" class="st0" d="M79.44,6.6v0.5c0,0.59,0.48,1.07,1.08,1.08h0.84c0.54,0.06,1.03-0.34,1.08-0.88
							c0-0.02,0-0.05,0-0.07c0-1.73-4.13-2.1-4.13-4.48c0.02-1.17,0.98-2.1,2.15-2.09c0.06,0,0.12,0,0.18,0.01h0.59
							c1.29,0,2.34,1.04,2.34,2.33c0,0,0,0,0,0v0.38h-1.25V3c0-0.6-0.48-1.08-1.08-1.08c0,0-0.01,0-0.01,0h-0.59
							c-0.67,0-1.08,0.31-1.08,0.83c0,1.33,4.13,1.84,4.13,4.48c-0.02,1.23-1.03,2.22-2.26,2.2c-0.03,0-0.05,0-0.08,0h-0.84
							c-1.28,0-2.33-1.04-2.33-2.32c0,0,0-0.01,0-0.01V6.6L79.44,6.6z"/>
						<path id="패스_8589" class="st0" d="M90.95,7.16c0,1.24-1.01,2.26-2.25,2.27h-1c-1.25,0-2.25-1.02-2.25-2.27V0.67h1.26v6.49
							c0,0.55,0.45,1,1,1h1c0.55,0,1-0.45,1-1V0.67h1.25L90.95,7.16z"/>
						<path id="패스_8590" class="st0" d="M98.21,2.92v0.75c0.01,1.24-1,2.25-2.23,2.25c-0.01,0-0.01,0-0.02,0h-2v3.5h-1.25V0.67
							h3.25c1.24-0.01,2.25,1,2.25,2.23C98.21,2.91,98.21,2.91,98.21,2.92z M96.96,2.92c0.01-0.55-0.43-0.99-0.98-1
							c-0.01,0-0.02,0-0.02,0h-2v2.75h2c0.55,0.01,0.99-0.43,1-0.98c0-0.01,0-0.02,0-0.02V2.92z"/>
						<path id="패스_8591" class="st0" d="M101.22,1.92v2.29h3.75v1.25h-3.75v2.71h4.26v1.25h-5.51V0.67h5.51v1.25L101.22,1.92z"
							/>
						<path id="패스_8592" class="st0" d="M111.09,5.84l1.64,3.59h-1.38l-1.59-3.5h-1.29v3.5h-1.25V0.67h3.25
							c1.24-0.01,2.25,0.99,2.25,2.23c0,0.01,0,0.01,0,0.02v0.75C112.74,4.68,112.07,5.57,111.09,5.84z M111.48,2.92
							c0.01-0.55-0.43-0.99-0.98-1c-0.01,0-0.02,0-0.02,0h-2v2.75h2c0.55,0.01,0.99-0.43,1-0.98c0-0.01,0-0.02,0-0.02V2.92z"/>
						<path id="패스_8593" class="st0" d="M119.62,1.92h-2.13v7.51h-1.25V1.92h-2.13V0.67h5.51L119.62,1.92z"/>
						<path id="패스_8594" class="st0" d="M123.12,9.43c-1.24-0.01-2.25-1.02-2.25-2.27V2.92c0-1.24,1.01-2.25,2.25-2.25
							c0,0,0,0,0,0h1c1.24,0,2.25,1,2.25,2.23c0,0.01,0,0.01,0,0.02v4.24c0,1.25-1.01,2.26-2.25,2.27L123.12,9.43z M125.12,7.16
							V2.92c0.01-0.55-0.43-0.99-0.98-1c-0.01,0-0.02,0-0.02,0h-1c-0.55,0-1,0.45-1,1v4.24c0,0.55,0.45,1,1,1h1
							C124.68,8.16,125.12,7.71,125.12,7.16C125.13,7.16,125.13,7.16,125.12,7.16L125.12,7.16z"/>
						<path id="패스_8595" class="st0" d="M133.64,0.67v8.76h-1.81l-2.44-6.66v6.66h-1.25V0.67h1.82l2.44,6.66V0.67H133.64z"/>
						<path id="패스_8596" class="st0" d="M136.64,1.92v2.29h3.75v1.25h-3.75v2.71h4.26v1.25h-5.51V0.67h5.51v1.25L136.64,1.92z"
							/>
					</g>
				</g>
			</g>
		</g>
		<g id="그룹_5255" transform="translate(17.162)">
			<g id="그룹_5254">
				<g id="그룹_5253">
					<path id="패스_8597" class="st0" d="M24.84,0.67H17.3C7.94,0.66,0.34,8.25,0.34,17.61c0,0.01,0,0.01,0,0.02v31.95
						c0.02,9.38,7.59,16.99,16.96,17.06h7.54c9.39-0.04,16.98-7.67,16.96-17.06V31.11H18.24v9.42h14.14v9.04
						c-0.01,4.16-3.38,7.53-7.54,7.54H17.3c-4.16-0.01-7.53-3.38-7.54-7.54V17.63c-0.02-4.14,3.32-7.52,7.46-7.54
						c0.03,0,0.05,0,0.08,0h7.54c4.11-0.06,7.49,3.23,7.54,7.34c0,0.06,0,0.13,0,0.19v5.18h9.42v-5.18
						C41.84,8.3,34.31,0.71,24.98,0.67C24.93,0.67,24.88,0.67,24.84,0.67z"/>
					<path id="패스_8598" class="st0" d="M77.89,0.67h-7.54c-9.36-0.01-16.96,7.58-16.97,16.94c0,0.01,0,0.01,0,0.02v31.95
						c0.02,9.38,7.59,16.99,16.97,17.06h7.54c9.39-0.04,16.98-7.67,16.96-17.06V17.63C94.89,8.3,87.35,0.71,78.03,0.67
						C77.98,0.67,77.93,0.67,77.89,0.67z M85.43,49.58c-0.01,4.16-3.38,7.53-7.54,7.54h-7.54c-4.16-0.01-7.53-3.38-7.54-7.54V17.63
						c-0.02-4.14,3.32-7.52,7.46-7.54c0.03,0,0.05,0,0.08,0h7.54c4.11-0.06,7.49,3.23,7.54,7.34c0,0.06,0,0.13,0,0.19V49.58z"/>
					<path id="패스_8599" class="st0" d="M182.85,0.67h-7.54c-9.36-0.01-16.96,7.58-16.96,16.94c0,0.01,0,0.01,0,0.02v31.95
						c0.02,9.38,7.59,16.99,16.96,17.06h7.54c9.39-0.04,16.98-7.67,16.96-17.06V17.63c0.04-9.33-7.49-16.92-16.82-16.96
						C182.95,0.67,182.9,0.67,182.85,0.67z M190.4,49.58c-0.01,4.16-3.38,7.53-7.54,7.54h-7.54c-4.16-0.01-7.53-3.38-7.54-7.54
						V17.63c-0.02-4.14,3.32-7.52,7.46-7.54c0.03,0,0.05,0,0.08,0h7.54c4.11-0.06,7.49,3.23,7.54,7.34c0,0.06,0,0.13,0,0.19V49.58z"
						/>
				</g>
				<path id="패스_8600" class="st0" d="M137.35,0.67v9.42l0,0v8.86l-11.31,14.8h-0.19L114.73,19.9v-9.8l0,0V0.68h-9.42v9.42l0,0
					v13.19l16.02,19.88v14.05l0,0v9.42h9.42v-9.42l0,0V43.17l16.02-21.01V10.09l0,0V0.67H137.35z"/>
			</g>
		</g>
		<g id="그룹_5260" transform="translate(0 110.325)">
			<g id="그룹_5259">
				<g id="그룹_5258">
					<g id="그룹_5256">
						<path id="패스_8601" class="st0" d="M12.95,0.67v6.59L8.08,20.72H5.21L0.34,7.26V0.67H3.2v6.07l3.41,9.45h0.06l3.41-9.45
							V0.67H12.95z"/>
						<path id="패스_8602" class="st0" d="M22.11,20.72c-2.85-0.02-5.15-2.34-5.16-5.19V5.83c0-2.85,2.3-5.15,5.15-5.16
							c0,0,0,0,0.01,0h2.29c2.84-0.01,5.14,2.28,5.16,5.11c0,0.01,0,0.03,0,0.04v9.71c0,2.85-2.3,5.17-5.16,5.19H22.11z M26.7,15.54
							V5.83c0.02-1.25-0.99-2.28-2.24-2.29c-0.02,0-0.04,0-0.06,0h-2.29c-1.26-0.01-2.29,1.01-2.29,2.27c0,0.01,0,0.02,0,0.02v9.71
							c0,1.26,1.03,2.29,2.29,2.29h2.29C25.67,17.83,26.69,16.8,26.7,15.54z"/>
						<path id="패스_8603" class="st0" d="M40.17,3.53v14.32h4.87v2.86h-12.6v-2.86h4.87V3.53h-4.88V0.67h12.6v2.86H40.17z"/>
						<path id="패스_8604" class="st0" d="M58.79,5.83c0.02-1.25-0.98-2.28-2.23-2.29c-0.02,0-0.04,0-0.06,0h-2.29
							c-1.26-0.01-2.29,1.01-2.29,2.27c0,0.01,0,0.02,0,0.02v9.71c0,1.26,1.03,2.29,2.29,2.29h2.29c1.26,0,2.29-1.03,2.29-2.29
							v-1.58h2.87v1.58c0,2.85-2.3,5.17-5.16,5.19h-2.29c-2.85-0.02-5.15-2.34-5.16-5.19V5.83c0-2.85,2.3-5.15,5.15-5.16
							c0,0,0,0,0.01,0h2.29c2.84-0.01,5.14,2.28,5.16,5.11c0,0.01,0,0.03,0,0.04V7.4h-2.87V5.83z"/>
						<path id="패스_8605" class="st0" d="M68.54,3.53v5.24h8.59v2.86h-8.59v6.22h9.74v2.86h-12.6V0.67h12.6v2.86H68.54z"/>
					</g>
					<g id="그룹_5257" transform="translate(92.814)">
						<path id="패스_8606" class="st0" d="M3.2,14.25v1.15c0.01,1.36,1.11,2.45,2.46,2.46h1.92c1.24,0.13,2.35-0.78,2.48-2.02
							c0.01-0.05,0.01-0.1,0.01-0.15c0-3.95-9.45-4.81-9.45-10.26c0-2.81,2.21-4.76,5.33-4.76H7.3c2.95-0.01,5.35,2.38,5.36,5.32
							c0,0,0,0,0,0v0.86H9.79V6c0-1.36-1.11-2.47-2.47-2.46c-0.01,0-0.01,0-0.02,0H5.95c-1.55,0-2.46,0.72-2.46,1.89
							c0,3.04,9.45,4.21,9.45,10.26c-0.03,2.82-2.35,5.08-5.17,5.05c-0.06,0-0.13,0-0.19-0.01H5.66c-2.94,0.01-5.32-2.37-5.33-5.31
							c0-0.01,0-0.01,0-0.02v-1.15H3.2z"/>
						<path id="패스_8607" class="st0" d="M19.82,3.53v5.24h8.59v2.86h-8.59v6.22h9.74v2.86h-12.6V0.67h12.6v2.86H19.82z"/>
						<path id="패스_8608" class="st0" d="M46.18,5.83v1.72c0.01,2.84-2.28,5.14-5.11,5.16c-0.01,0-0.03,0-0.04,0h-4.58v8.02
							h-2.86V0.67h7.45c2.84-0.01,5.14,2.28,5.16,5.11C46.18,5.8,46.18,5.81,46.18,5.83z M43.32,5.83c0.02-1.25-0.98-2.28-2.23-2.29
							c-0.02,0-0.04,0-0.06,0h-4.58v6.3h4.58c1.25,0.02,2.28-0.98,2.29-2.23c0-0.02,0-0.04,0-0.06V5.83z"/>
						<path id="패스_8609" class="st0" d="M60.23,14.13v6.59h-2.86v-4.64h-6.88v4.64h-2.86v-6.59l4.87-13.46h2.86L60.23,14.13z
							 M51,13.22h5.84L53.95,5.2H53.9L51,13.22z"/>
						<path id="패스_8610" class="st0" d="M73.1,12.5l3.75,8.22H73.7l-3.64-8.02h-2.95v8.02h-2.86V0.67h7.45
							c2.84-0.01,5.14,2.28,5.16,5.11c0,0.01,0,0.03,0,0.04v1.72C76.86,9.85,75.32,11.88,73.1,12.5z M73.98,5.82
							C74,4.57,73,3.55,71.75,3.53c-0.02,0-0.04,0-0.06,0h-4.58v6.3h4.58c1.25,0.02,2.28-0.98,2.29-2.23c0-0.02,0-0.04,0-0.06V5.82z
							"/>
						<path id="패스_8611" class="st0" d="M93.47,14.13v6.59H90.6v-4.64h-6.88v4.64h-2.86v-6.59l4.87-13.46h2.86L93.47,14.13z
							 M84.24,13.22h5.84L87.19,5.2h-0.06L84.24,13.22z"/>
						<path id="패스_8612" class="st0" d="M108.08,3.53h-4.87v17.19h-2.86V3.53h-4.87V0.67h12.6L108.08,3.53z"/>
						<path id="패스_8613" class="st0" d="M117.26,20.72c-2.85-0.02-5.15-2.34-5.16-5.19V5.83c0-2.85,2.3-5.15,5.15-5.16
							c0,0,0,0,0.01,0h2.29c2.84-0.01,5.14,2.28,5.16,5.11c0,0.01,0,0.03,0,0.04v9.71c0,2.85-2.3,5.17-5.16,5.19H117.26z
							 M121.84,15.54V5.83c0.02-1.25-0.99-2.28-2.24-2.29c-0.02,0-0.04,0-0.06,0h-2.29c-1.26-0.01-2.28,1.01-2.29,2.27
							c0,0.01,0,0.02,0,0.02v9.71c0,1.26,1.03,2.29,2.29,2.29h2.29C120.81,17.82,121.84,16.8,121.84,15.54L121.84,15.54z"/>
						<path id="패스_8614" class="st0" d="M137.57,12.5l3.75,8.22h-3.15l-3.64-8.02h-2.95v8.02h-2.86V0.67h7.45
							c2.84-0.01,5.14,2.28,5.16,5.11c0,0.01,0,0.03,0,0.04v1.72C141.34,9.85,139.8,11.88,137.57,12.5z M138.46,5.82
							c0.02-1.25-0.99-2.28-2.24-2.29c-0.02,0-0.04,0-0.06,0h-4.58v6.3h4.58c1.25,0.02,2.28-0.99,2.29-2.24c0-0.02,0-0.04,0-0.06
							L138.46,5.82z"/>
					</g>
				</g>
			</g>
		</g>
	</g>
	<g id="그룹_5262" transform="translate(232.591 277.695)">
		<path id="패스_8615" class="st0" d="M40.99,11.03h2.09l-1.05-2.91L40.99,11.03z"/>
		<path id="패스_8616" class="st0" d="M14.72,11.32h-2.21v2.48h2.21c0.47,0.01,0.85-0.37,0.86-0.84c0-0.01,0-0.02,0-0.04v-0.75
			c0.02-0.46-0.34-0.84-0.8-0.86C14.75,11.32,14.74,11.32,14.72,11.32z"/>
		<path id="패스_8617" class="st0" d="M15.24,7.84V7.16c0.01-0.47-0.35-0.86-0.82-0.87c-0.01,0-0.03,0-0.04,0h-1.88v2.44h1.87
			c0.47,0.01,0.86-0.36,0.86-0.83C15.24,7.87,15.24,7.86,15.24,7.84z"/>
		<path id="패스_8618" class="st0" d="M46.44,0.67H9.64c-5.25,0.13-9.41,4.5-9.27,9.75c0.13,5.07,4.21,9.15,9.27,9.27h36.8
			c5.25-0.13,9.41-4.5,9.27-9.75C55.58,4.87,51.5,0.8,46.44,0.67z M18.18,12.93c0,1.91-1.55,3.47-3.46,3.48H9.91V3.68h4.48
			c1.89-0.02,3.44,1.51,3.46,3.4c0,0.02,0,0.05,0,0.07v0.68c0,0.7-0.21,1.38-0.6,1.96c0.6,0.64,0.94,1.49,0.93,2.38L18.18,12.93z
			 M27.89,6.28h-5.66v2.15h5v2.61h-5v2.75h5.67v2.6h-8.27V3.68h8.27L27.89,6.28z M37.45,6.28h-2.83V16.4h-2.6V6.28h-2.83v-2.6h8.27
			L37.45,6.28z M46.17,16.4h-2.6v-2.77H40.5v2.77h-2.6v-4.45l2.97-8.27h2.32l2.97,8.27L46.17,16.4z"/>
	</g>
	<g id="그룹_5269" transform="translate(196.126 131.646)">
		<g id="그룹_5264">
			<g id="그룹_5263" transform="translate(0)">
				<path id="패스_8619" class="st0" d="M19.6,39.19c-10.64,0-19.26-8.62-19.26-19.26S8.95,0.67,19.59,0.67
					c10.64,0,19.26,8.62,19.26,19.26c0,0,0,0,0,0C38.84,30.56,30.23,39.18,19.6,39.19z M19.6,5.27c-8.1,0-14.67,6.56-14.67,14.66
					c0,8.1,6.56,14.67,14.66,14.67c8.1,0,14.67-6.56,14.67-14.66c0,0,0,0,0,0C34.24,11.84,27.69,5.28,19.6,5.27z"/>
				<circle id="타원_52" class="st0" cx="19.6" cy="11.06" r="3.01"/>
			</g>
			<rect id="사각형_3420" x="0.34" y="47.39" class="st0" width="128.33" height="4.59"/>
		</g>
		<g id="그룹_5266" transform="translate(44.906)">
			<g id="그룹_5265">
				<path id="패스_8620" class="st0" d="M19.6,39.19c-10.64,0-19.26-8.62-19.26-19.26S8.96,0.67,19.59,0.67
					c10.64,0,19.26,8.62,19.26,19.26c0,0,0,0,0,0C38.84,30.56,30.23,39.18,19.6,39.19z M19.6,5.27c-8.1,0-14.66,6.56-14.66,14.66
					c0,8.1,6.56,14.66,14.66,14.66c8.1,0,14.66-6.56,14.66-14.66c0,0,0,0,0,0C34.25,11.84,27.69,5.28,19.6,5.27z"/>
				<circle id="타원_53" class="st0" cx="19.6" cy="11.06" r="3.01"/>
			</g>
		</g>
		<g id="그룹_5268" transform="translate(89.812)">
			<g id="그룹_5267">
				<path id="패스_8621" class="st0" d="M19.6,39.19c-10.64,0-19.26-8.62-19.26-19.26S8.96,0.67,19.59,0.67
					c10.64,0,19.26,8.62,19.26,19.26c0,0,0,0,0,0C38.84,30.56,30.23,39.18,19.6,39.19z M19.6,5.27c-8.1,0-14.66,6.56-14.66,14.66
					S11.5,34.59,19.6,34.59c8.1,0,14.66-6.56,14.66-14.66c0,0,0,0,0,0C34.25,11.83,27.69,5.27,19.6,5.27z"/>
				<circle id="타원_54" class="st0" cx="19.6" cy="11.06" r="3.01"/>
			</g>
		</g>
	</g>
</g>
</svg>
