<?xml version="1.0" encoding="utf-8"?>
<!-- Generator: Adobe Illustrator 27.0.0, SVG Export Plug-In . SVG Version: 6.00 Build 0)  -->
<svg version="1.1" id="_레이어_3" xmlns="http://www.w3.org/2000/svg" xmlns:xlink="http://www.w3.org/1999/xlink" x="0px"
	 y="0px" viewBox="0 0 364 33.4" style="enable-background:new 0 0 364 33.4;" xml:space="preserve">
<g>
	<path id="패스_15100" d="M10.5,12.7l-2.2,6.1h4.5L10.5,12.7L10.5,12.7z"/>
	<g>
		<path id="패스_15101" d="M26.4,0H6.9C3.1,0,0,3.1,0,6.9v19.5c0,3.8,3.1,6.9,6.9,6.9h19.5c3.8,0,6.9-3.1,6.9-6.9V6.9
			C33.3,3.1,30.3,0,26.4,0 M15.4,24.6h-2.2V21H7.9v3.6H5.7v-5L9.5,9.2h2.2l3.7,10.3V24.6z M27.5,11.4h-3.7v11h3.7v2.2h-9.7v-2.2h3.7
			v-11h-3.7V9.2h9.7V11.4z"/>
		<g>
			<path id="패스_15102" d="M65.7,12v1.7c0,2.7-2.2,5-4.9,5l0,0h-4.4v7.7h-2.8V7h7.2C63.4,7,65.7,9.2,65.7,12
				C65.7,11.9,65.7,12,65.7,12 M62.9,12c0-1.2-0.9-2.2-2.2-2.2c0,0,0,0-0.1,0h-4.4v6.1h4.4c1.2,0,2.2-1,2.2-2.2c0,0,0,0,0-0.1
				L62.9,12L62.9,12z"/>
			<path id="패스_15103" d="M74.5,26.3c-2.7,0-5-2.3-5-5V12c0-2.7,2.2-5,5-5l0,0h2.2c2.7,0,5,2.2,5,4.9l0,0v9.4c0,2.8-2.2,5-5,5
				H74.5z M78.9,21.3V12c0-1.2-1-2.2-2.2-2.2c0,0,0,0-0.1,0h-2.2c-1.2,0-2.2,1-2.2,2.2l0,0v9.4c0,1.2,1,2.2,2.2,2.2h2.2
				C77.9,23.6,78.9,22.6,78.9,21.3"/>
			<path id="패스_15104" d="M97.7,7v6.4l-1.7,13h-2.2l-2.2-8.3l-2.2,8.3h-2.2l-1.7-13V7h2.8v5.5l0.7,8.2l1.5-8.7h2.3l1.5,8.7
				l0.7-8.2V7H97.7z"/>
			<path id="패스_15105" d="M104.4,9.8v5.1h8.3v2.8h-8.3v6h9.4v2.8h-12.2V7h12.2v2.8H104.4z"/>
			<path id="패스_15106" d="M126.2,18.4l3.6,7.9h-3l-3.5-7.7h-2.9v7.7h-2.8V7h7.2c2.7,0,5,2.2,5,4.9l0,0v1.7
				C129.8,15.9,128.3,17.8,126.2,18.4 M127,12c0-1.2-1-2.2-2.2-2.2c0,0,0,0-0.1,0h-4.4v6.1h4.4c1.2,0,2.2-1,2.2-2.2c0,0,0,0,0-0.1
				L127,12L127,12z"/>
			<path id="패스_15107" d="M136.4,9.8v5.1h8.3v2.8h-8.3v6h9.4v2.8h-12.2V7h12.2v2.8H136.4z"/>
			<path id="패스_15108" d="M161.9,12v9.4c0,2.7-2.2,5-5,5h-7.2V7h7.2C159.6,7,161.9,9.2,161.9,12L161.9,12 M159.1,12
				c0-1.2-1-2.2-2.2-2.2l0,0h-4.4v13.8h4.4c1.2,0,2.2-1,2.2-2.2V12z"/>
			<path id="패스_15109" d="M191.7,20.3v1.1c0,2.7-2.2,5-4.9,5l0,0h-7.2V7h6.6c2.7,0,5,2.2,5,4.9l0,0V13c0,1.2-0.4,2.4-1.3,3.3
				C191.1,17.3,191.7,18.8,191.7,20.3 M182.3,9.8v5.5h3.9c1.2,0,2.2-1,2.2-2.2c0,0,0,0,0-0.1v-1c0-1.2-1-2.2-2.2-2.2c0,0,0,0-0.1,0
				H182.3z M189,20.3c0-1.2-1-2.2-2.2-2.2l0,0h-4.4v5.5h4.4c1.2,0,2.2-1,2.2-2.2c0,0,0,0,0-0.1V20.3z"/>
			<path id="패스_15110" d="M207.8,7v6.3l-4.7,6.2v6.9h-2.8v-6.9l-4.7-5.8V7h2.8v5.6l3.3,4.1h0.1l3.3-4.3V7H207.8z"/>
			<path id="패스_15111" d="M228.2,20.1v1.1c0,1.3,1.1,2.4,2.4,2.4h1.8c1.2,0.1,2.3-0.8,2.4-2v-0.1c0-3.8-9.1-4.6-9.1-9.9
				c0-2.7,2.1-4.6,5.1-4.6h1.3c2.8,0,5.2,2.3,5.2,5.1l0,0V13h-2.8v-0.8c0-1.3-1.1-2.4-2.4-2.4l0,0h-1.3c-1.5,0-2.4,0.7-2.4,1.8
				c0,2.9,9.1,4.1,9.1,9.9c0,2.7-2.3,4.9-5,4.9c-0.1,0-0.1,0-0.2,0h-1.8c-2.8,0-5.1-2.3-5.1-5.1l0,0v-1.1L228.2,20.1z"/>
			<path id="패스_15112" d="M253.6,21.3c0,2.7-2.2,5-5,5h-2.2c-2.8,0-5-2.2-5-5V7h2.8v14.3c0,1.2,1,2.2,2.2,2.2h2.2
				c1.2,0,2.2-1,2.2-2.2V7h2.8V21.3z"/>
			<path id="패스_15113" d="M269.7,12v1.7c0,2.7-2.2,5-4.9,5l0,0h-4.4v7.7h-2.8V7h7.2C267.4,7,269.7,9.2,269.7,12
				C269.7,11.9,269.7,12,269.7,12 M266.9,12c0-1.2-1-2.2-2.2-2.2c0,0,0,0-0.1,0h-4.4v6.1h4.4c1.2,0,2.2-1,2.2-2.2c0,0,0,0,0-0.1V12
				H266.9z"/>
			<path id="패스_15114" d="M276.3,9.8v5.1h8.3v2.8h-8.3v6h9.4v2.8h-12.2V7h12.2v2.8H276.3z"/>
			<path id="패스_15115" d="M298.1,18.4l3.6,7.9h-3l-3.5-7.7h-2.9v7.7h-2.8V7h7.2c2.7,0,5,2.2,5,4.9l0,0v1.7
				C301.8,15.9,300.3,17.8,298.1,18.4 M299,12c0-1.2-1-2.2-2.2-2.2c0,0,0,0-0.1,0h-4.4v6.1h4.4c1.2,0,2.2-1,2.2-2.2c0,0,0,0,0-0.1
				L299,12z"/>
			<path id="패스_15116" d="M317,9.8h-4.7v16.6h-2.8V9.8h-4.7V7H317V9.8z"/>
			<path id="패스_15117" d="M324.7,26.3c-2.7,0-5-2.3-5-5V12c0-2.7,2.2-5,5-5l0,0h2.2c2.7,0,5,2.2,5,4.9l0,0v9.4c0,2.8-2.2,5-5,5
				H324.7z M329.1,21.3V12c0-1.2-1-2.2-2.2-2.2c0,0,0,0-0.1,0h-2.2c-1.2,0-2.2,1-2.2,2.2l0,0v9.4c0,1.2,1,2.2,2.2,2.2h2.2
				C328.1,23.6,329.1,22.6,329.1,21.3"/>
			<path id="패스_15118" d="M347.9,7v19.3h-4l-5.4-14.7v14.7h-2.8V7h4l5.4,14.7V7H347.9z"/>
			<path id="패스_15119" d="M354.6,9.8v5.1h8.3v2.8h-8.3v6h9.4v2.8h-12.2V7H364v2.8H354.6z"/>
		</g>
	</g>
</g>
</svg>
