<?xml version="1.0" encoding="utf-8"?>
<!-- Generator: Adobe Illustrator 26.5.0, SVG Export Plug-In . SVG Version: 6.00 Build 0)  -->
<svg version="1.1" id="레이어_1" xmlns="http://www.w3.org/2000/svg" xmlns:xlink="http://www.w3.org/1999/xlink" x="0px"
	 y="0px" viewBox="0 0 292.05 58.1" style="enable-background:new 0 0 292.05 58.1;" xml:space="preserve">
<style type="text/css">
	.st0{fill:#2B2C2D;}
</style>
<g>
	<g>
		<g>
			<polygon class="st0" points="277.73,10.16 279.66,10.16 278.7,7.47 			"/>
			<path class="st0" d="M253.43,10.42h-2.04v2.3h2.04c0.45,0,0.79-0.35,0.79-0.81v-0.69C254.22,10.76,253.89,10.42,253.43,10.42z"/>
			<path class="st0" d="M253.91,7.21V6.58c0-0.46-0.34-0.81-0.79-0.81h-1.74v2.25h1.74C253.57,8.02,253.91,7.67,253.91,7.21z"/>
			<path class="st0" d="M282.77,0.57h-34.04c-4.58,0-8.61,4.11-8.61,8.8s4.02,8.8,8.61,8.8h34.04c4.58,0,8.61-4.11,8.61-8.8
				S287.35,0.57,282.77,0.57z M256.63,11.91c0,1.77-1.44,3.21-3.2,3.21h-4.45V3.36h4.14c1.79,0,3.2,1.41,3.2,3.21v0.63
				c0,0.65-0.19,1.28-0.55,1.81c0.55,0.59,0.86,1.37,0.86,2.2V11.91z M265.62,5.77h-5.24v1.99H265v2.42h-4.63v2.55h5.24v2.41h-7.65
				V3.36h7.65V5.77z M274.45,5.77h-2.62v9.36h-2.4V5.77h-2.62V3.36h7.65V5.77z M282.52,15.13h-2.41v-2.56h-2.84v2.56h-2.41v-4.12
				l2.75-7.65h2.15l2.75,7.65V15.13z"/>
		</g>
		<g>
			<path class="st0" d="M89.6,20.04V15.6c0-3.63-2.82-6.45-6.45-6.45h-6.45c-3.63,0-6.45,2.9-6.45,6.45v27.33
				c0,3.55,2.9,6.45,6.45,6.45h6.45c3.55,0,6.45-2.9,6.45-6.45V38.5v-3.31H77.51v-8.06h20.15V38.5v4.43
				c0,7.98-6.45,14.59-14.51,14.59h-6.45c-7.98,0-14.51-6.61-14.51-14.59V15.6c0-8.06,6.53-14.51,14.51-14.51h6.45
				c8.06,0,14.51,6.45,14.51,14.51v4.43H89.6z"/>
			<path class="st0" d="M186.42,1.09v18.38l-13.7,17.98v20.07h-8.06V37.45l-13.71-17.01V1.09h8.06v16.45l9.51,11.85h0.16l9.67-12.66
				V1.09H186.42z"/>
			<path class="st0" d="M121.69,57.52c-7.98,0-14.51-6.61-14.51-14.59V15.6c0-8.06,6.53-14.51,14.51-14.51h6.45
				c8.06,0,14.51,6.45,14.51,14.51v27.33c0,7.98-6.45,14.59-14.51,14.59H121.69z M134.59,42.93V15.6c0-3.63-2.82-6.45-6.45-6.45
				h-6.45c-3.63,0-6.45,2.9-6.45,6.45v27.33c0,3.55,2.9,6.45,6.45,6.45h6.45C131.68,49.38,134.59,46.48,134.59,42.93z"/>
			<path class="st0" d="M210.2,57.52c-7.98,0-14.51-6.61-14.51-14.59V15.6c0-8.06,6.53-14.51,14.51-14.51h6.45
				c8.06,0,14.51,6.45,14.51,14.51v27.33c0,7.98-6.45,14.59-14.51,14.59H210.2z M223.1,42.93V15.6c0-3.63-2.82-6.45-6.45-6.45h-6.45
				c-3.63,0-6.45,2.9-6.45,6.45v27.33c0,3.55,2.9,6.45,6.45,6.45h6.45C220.2,49.38,223.1,46.48,223.1,42.93z"/>
		</g>
	</g>
	<g>
		<g>
			<path class="st0" d="M22.9,45.54c-12.25,0-22.22-9.97-22.22-22.22S10.64,1.09,22.9,1.09c12.25,0,22.22,9.97,22.22,22.22
				S35.15,45.54,22.9,45.54z M22.9,6.4c-9.33,0-16.92,7.59-16.92,16.92s7.59,16.92,16.92,16.92s16.92-7.59,16.92-16.92
				S32.22,6.4,22.9,6.4z"/>
			<circle class="st0" cx="22.9" cy="13.08" r="3.48"/>
		</g>
		<rect x="2.38" y="52.23" class="st0" width="41.04" height="5.29"/>
	</g>
</g>
</svg>
