<?xml version="1.0" encoding="UTF-8"?><svg id="_레이어_3" xmlns="http://www.w3.org/2000/svg" viewBox="0 0 363.95 144.09"><defs><style>.cls-1{fill:#fff;}</style></defs><g id="_그룹_5298"><g id="_그룹_5199"><path id="_패스_8428" class="cls-1" d="M83.99,14.77l-2.33,6.45h4.7l-2.33-6.45h-.05Z"/><path id="_패스_8429" class="cls-1" d="M100.68,1.47h-20.51c-4,.01-7.24,3.25-7.26,7.26V29.24c.01,4,3.25,7.24,7.26,7.25h20.51c4-.01,7.24-3.25,7.25-7.25V8.73c0-4-3.25-7.24-7.25-7.26Zm-11.6,25.78h-2.3v-3.73h-5.53v3.73h-2.3v-5.3l3.91-10.82h2.3l3.92,10.82v5.3Zm12.66-13.82h-3.92v11.52h3.92v2.3h-10.14v-2.3h3.91V13.44h-3.91v-2.3h10.13v2.3Z"/></g><path id="_패스_8430" class="cls-1" d="M141.86,14.97v1.74c.01,2.87-2.31,5.21-5.18,5.22-.01,0-.03,0-.04,0h-4.64v8.13h-2.9V9.75h7.54c2.87-.01,5.21,2.31,5.22,5.18,0,.01,0,.03,0,.04Zm-2.9,0c.02-1.27-1-2.31-2.26-2.32-.02,0-.04,0-.06,0h-4.64v6.38h4.64c1.27,.02,2.31-1,2.32-2.26,0-.02,0-.04,0-.06v-1.74Z"/><path id="_패스_8431" class="cls-1" d="M151.14,30.06c-2.89-.02-5.21-2.37-5.22-5.25V14.97c0-2.88,2.34-5.22,5.22-5.22h2.33c2.87-.01,5.21,2.31,5.22,5.18,0,.01,0,.03,0,.04v9.84c0,2.89-2.33,5.24-5.22,5.25h-2.33Zm4.65-5.25V14.97c.02-1.27-1-2.31-2.26-2.32-.02,0-.04,0-.06,0h-2.32c-1.28,0-2.31,1.02-2.32,2.3,0,0,0,.01,0,.02v9.84c0,1.28,1.04,2.32,2.32,2.32h2.33c1.28,0,2.32-1.04,2.33-2.32h0Z"/><path id="_패스_8432" class="cls-1" d="M175.53,9.75v6.67l-1.74,13.64h-2.32l-2.32-8.68-2.32,8.68h-2.32l-1.74-13.64v-6.67h2.9v5.8l.7,8.56,1.59-9.14h2.38l1.6,9.14,.7-8.56v-5.8h2.89Z"/><path id="_패스_8433" class="cls-1" d="M182.49,12.65v5.31h8.71v2.9h-8.71v6.29h9.87v2.9h-12.77V9.75h12.77v2.9h-9.87Z"/><path id="_패스_8434" class="cls-1" d="M205.4,21.73l3.8,8.33h-3.19l-3.68-8.13h-2.98v8.13h-2.9V9.75h7.54c2.87-.01,5.21,2.31,5.22,5.18,0,.01,0,.03,0,.04v1.74c.01,2.34-1.55,4.4-3.8,5.02Zm.9-6.76c.02-1.27-1-2.31-2.26-2.32-.02,0-.04,0-.06,0h-4.64v6.38h4.64c1.27,.02,2.31-1,2.32-2.26,0-.02,0-.04,0-.06v-1.74Z"/><path id="_패스_8435" class="cls-1" d="M216.17,12.65v5.31h8.7v2.9h-8.7v6.29h9.86v2.9h-12.77V9.75h12.77v2.9h-9.86Z"/><path id="_패스_8436" class="cls-1" d="M242.86,14.97v9.84c0,2.89-2.34,5.23-5.22,5.25h-7.54V9.75h7.54c2.88,0,5.22,2.34,5.22,5.22h0Zm-2.9,0c0-1.27-1.02-2.31-2.29-2.32,0,0-.02,0-.03,0h-4.64v14.48h4.64c1.28,0,2.32-1.04,2.32-2.32V14.97Z"/><path id="_패스_8437" class="cls-1" d="M274.21,23.67v1.16c.01,2.87-2.3,5.21-5.17,5.23-.02,0-.03,0-.05,0h-7.55V9.75h6.96c2.87-.01,5.21,2.3,5.23,5.17,0,.02,0,.03,0,.05v1.16c0,1.29-.47,2.53-1.34,3.48,1.21,1,1.92,2.49,1.91,4.06Zm-9.86-11.03v5.8h4.06c1.26,.02,2.3-.99,2.32-2.25,0-.02,0-.04,0-.07v-1.16c.02-1.27-1-2.3-2.26-2.32-.02,0-.04,0-.06,0h-4.06Zm6.96,11.03c.02-1.27-1-2.3-2.26-2.32-.02,0-.04,0-.06,0h-4.64v5.8h4.64c1.27,.02,2.3-1,2.32-2.26,0-.02,0-.04,0-.06v-1.16Z"/><path id="_패스_8438" class="cls-1" d="M291.04,9.75v6.61l-4.93,6.47v7.23h-2.9v-7.23l-4.93-6.12v-6.96h2.9v5.92l3.42,4.26h.06l3.48-4.56v-5.63h2.9Z"/></g><g><g><path class="cls-1" d="M19.33,129.97v12.65h-3.18v-12.65h3.18Z"/><path class="cls-1" d="M21.77,129.97h3.18l4.42,7.52h.04v-7.52h3.18v12.65h-3.18l-4.42-7.52h-.04v7.52h-3.18v-12.65Z"/><path class="cls-1" d="M37.88,132.57h-3.68v-2.6h10.53v2.6h-3.66v10.05h-3.18v-10.05Z"/><path class="cls-1" d="M55.3,134.82v2.6h-5.52v2.6h6.51v2.6h-9.69v-12.65h9.59v2.6h-6.4v2.25h5.52Z"/><path class="cls-1" d="M61.6,129.97v10.05h5.62v2.6h-8.81v-12.65h3.18Z"/><path class="cls-1" d="M72.3,129.97v10.05h5.62v2.6h-8.81v-12.65h3.18Z"/><path class="cls-1" d="M83.01,129.97v12.65h-3.18v-12.65h3.18Z"/><path class="cls-1" d="M91.11,132.29c-2.09,0-2.88,1.63-2.88,4s.8,4.02,3.01,4.02c1.47,0,2.49-.88,2.53-2.11h-2.41v-2.3h5.7v6.72h-2.28l-.32-1.61h-.04c-.6,1.15-1.79,1.89-3.64,1.89-3.59,0-5.73-2.79-5.73-6.62s2.14-6.6,6.12-6.6c3.47,0,5.4,2.05,5.7,4.48h-3.18c-.23-.87-.81-1.87-2.57-1.87Z"/><path class="cls-1" d="M107.99,134.82v2.6h-5.52v2.6h6.51v2.6h-9.69v-12.65h9.59v2.6h-6.4v2.25h5.52Z"/><path class="cls-1" d="M111.1,129.97h3.18l4.42,7.52h.04v-7.52h3.18v12.65h-3.18l-4.42-7.52h-.04v7.52h-3.18v-12.65Z"/><path class="cls-1" d="M127.21,132.57h-3.68v-2.6h10.53v2.6h-3.66v10.05h-3.18v-10.05Z"/><path class="cls-1" d="M142.75,139.98l-.81,2.64h-3.18l4.58-12.65h3.18l4.56,12.65h-3.18l-.81-2.64h-4.33Zm3.63-2.42l-1.43-4.67h-.04l-1.43,4.67h2.9Z"/><path class="cls-1" d="M157.35,142.9c-3.82,0-5.29-1.7-5.29-4.85v-8.08h3.18v8.08c0,1.65,.71,2.25,2.11,2.25s2.11-.6,2.11-2.25v-8.08h3.18v8.08c0,3.15-1.47,4.85-5.29,4.85Z"/><path class="cls-1" d="M164.98,129.97h5.61c3.52,0,5.64,2.26,5.64,6.33s-1.95,6.32-5.47,6.32h-5.78v-12.65Zm3.18,10.05h2.11c1.98,0,2.78-1.41,2.78-3.71s-.8-3.73-2.78-3.73h-2.11v7.45Z"/><path class="cls-1" d="M181.36,129.97v12.65h-3.18v-12.65h3.18Z"/><path class="cls-1" d="M183.38,136.29c0-3.8,2.25-6.6,6.26-6.6s6.26,2.8,6.26,6.6-2.28,6.62-6.26,6.62-6.26-2.79-6.26-6.62Zm9.34,0c0-2.19-.78-4-3.08-4s-3.08,1.8-3.08,4,.76,4.02,3.08,4.02,3.08-1.8,3.08-4.02Z"/><path class="cls-1" d="M209.8,135.35v2.6h-5.08v4.67h-3.18v-12.65h9.41v2.6h-6.23v2.78h5.08Z"/><path class="cls-1" d="M212.03,136.29c0-3.8,2.25-6.6,6.26-6.6s6.26,2.8,6.26,6.6-2.28,6.62-6.26,6.62-6.26-2.79-6.26-6.62Zm9.34,0c0-2.19-.78-4-3.08-4s-3.08,1.8-3.08,4,.76,4.02,3.08,4.02,3.08-1.8,3.08-4.02Z"/><path class="cls-1" d="M226.48,129.97h5.96c2.81,0,4.51,1.29,4.51,3.68,0,1.68-.99,2.74-2.56,3.1v.04c3.17,.55,2.02,5.45,2.74,5.66v.18h-3.31c-.62-.53,.53-4.4-2.18-4.4h-1.98v4.4h-3.18v-12.65Zm3.18,5.64h2.16c1.27,0,1.95-.46,1.95-1.52s-.67-1.52-1.95-1.52h-2.16v3.04Z"/><path class="cls-1" d="M248.25,132.29c-2.11,0-2.81,1.63-2.81,4s.71,4.02,2.81,4.02c1.7,0,2.33-1.01,2.55-2.42h3.18c-.28,2.97-2.12,5.02-5.59,5.02-4,0-6.14-2.79-6.14-6.62s2.14-6.6,6.14-6.6c3.45,0,5.29,2.05,5.59,4.99h-3.18c-.23-1.38-.87-2.39-2.55-2.39Z"/><path class="cls-1" d="M255.8,129.97h5.96c2.81,0,4.51,1.29,4.51,3.68,0,1.68-.99,2.74-2.56,3.1v.04c3.17,.55,2.02,5.45,2.74,5.66v.18h-3.31c-.62-.53,.53-4.4-2.18-4.4h-1.98v4.4h-3.18v-12.65Zm3.18,5.64h2.16c1.27,0,1.95-.46,1.95-1.52s-.67-1.52-1.95-1.52h-2.16v3.04Z"/><path class="cls-1" d="M277.08,134.82v2.6h-5.52v2.6h6.51v2.6h-9.69v-12.65h9.59v2.6h-6.4v2.25h5.52Z"/><path class="cls-1" d="M283.39,139.98l-.81,2.64h-3.18l4.58-12.65h3.18l4.56,12.65h-3.18l-.81-2.64h-4.33Zm3.63-2.42l-1.43-4.67h-.04l-1.43,4.67h2.9Z"/><path class="cls-1" d="M294.83,132.57h-3.68v-2.6h10.53v2.6h-3.66v10.05h-3.18v-10.05Z"/><path class="cls-1" d="M306.75,129.97v12.65h-3.18v-12.65h3.18Z"/><path class="cls-1" d="M311.67,129.97l2.39,8.86h.03l2.41-8.86h3.36l-4.1,12.65h-3.36l-4.1-12.65h3.38Z"/><path class="cls-1" d="M324.62,129.97v12.65h-3.18v-12.65h3.18Z"/><path class="cls-1" d="M329.9,132.57h-3.68v-2.6h10.53v2.6h-3.66v10.05h-3.18v-10.05Z"/><path class="cls-1" d="M341.4,129.97l2.46,5.2h.04l2.48-5.2h3.36l-4.26,7.98v4.67h-3.18v-4.67l-4.25-7.98h3.36Z"/></g><g><path class="cls-1" d="M26.05,86.82l-6.33-1.44c-1.69-.43-3.02-.69-4.01-1.23-.98-.53-1.69-1.29-1.69-2.6,0-1.17,.81-1.97,1.99-2.59,1.18-.61,2.74-.7,4.13-.7,1.52,0,3.04,.35,4.56,1.04,1.52,.7,3.49,1.58,5.03,4.43l7.96-4.75c-1.46-3.21-3.74-5.55-6.83-7.02-3.09-1.47-6.61-2.21-10.55-2.21-2.36,0-4.57,.28-6.62,.84-2.05,.56-3.84,1.37-5.36,2.41-1.52,1.04-2.71,2.32-3.59,3.81-.87,1.5-1.31,3.21-1.31,5.14,0,1.71,.37,3.21,1.1,4.5,.73,1.28,1.66,2.38,2.78,3.29,1.12,.91,2.38,1.66,3.75,2.25,1.38,.59,3.19,1.12,4.61,1.41l5.22,1.08c3.06,.62,4.12,.83,5.22,1.3,1.85,.79,2.34,1.73,2.25,3.3-.06,.96-.72,1.92-2.16,2.74-1.19,.68-2.85,1.05-4.88,1.05s-4.4-.56-6.01-1.55c-1.6-.99-3.52-2.35-5.36-5.81l-8.13,4.92c.56,1.39,1.38,2.77,2.45,4.13,1.07,1.37,2.38,2.57,3.92,3.61,1.55,1.04,3.37,1.89,5.48,2.53,2.11,.64,4.51,.96,7.21,.96s5.05-.35,7.21-1.04c2.16-.69,4.02-1.65,5.57-2.85,1.55-1.2,2.74-2.58,3.59-4.13,.84-1.55,1.27-3.18,1.27-4.9,0-2.89-1.03-5.39-3.08-7.51-2.05-2.11-5.19-3.43-9.41-4.4Z"/><path class="cls-1" d="M120.62,75.64c-1.85-1.85-4.04-3.29-6.58-4.34-2.54-1.04-5.34-1.57-8.39-1.57s-5.89,.8-8.39,1.94c-1.31,.6-1.97,1.1-2.62,1.67v-2.32h-9.86v48.17h10.52v-10.79c.61,.53,1.35,.94,1.97,1.3,2.01,1.19,5.34,1.94,8.39,1.94,4.01,0,5.85-.52,8.39-1.57,2.54-1.04,4.74-2.49,6.58-4.34,1.85-1.85,3.29-4.05,4.34-6.62,1.04-2.57,1.57-5.38,1.57-8.43s-.52-5.86-1.57-8.43c-1.04-2.57-2.49-4.78-4.34-6.62Zm-5.46,19.79c-.56,1.39-1.32,2.57-2.29,3.53-.96,.96-2.08,1.7-3.33,2.21-1.26,.51-2.56,.76-3.89,.76s-3.29-.25-4.57-.76c-1.29-.51-2.43-1.24-3.44-2.21-1.01-.96-1.8-2.14-2.39-3.53-.59-1.39-.88-2.97-.88-4.73h0c0-1.78,.29-3.35,.88-4.74,.59-1.39,1.38-2.57,2.39-3.53,1.01-.96,2.15-1.7,3.44-2.21,1.29-.51,3.18-.76,4.57-.76s2.64,.25,3.89,.76c1.26,.51,2.37,1.24,3.33,2.21,.96,.96,1.73,2.14,2.29,3.53,.56,1.39,.84,2.97,.84,4.74s-.28,3.35-.84,4.74Z"/><path class="cls-1" d="M269.7,75.64c-1.85-1.85-4.04-3.29-6.58-4.34-2.54-1.04-5.34-1.57-8.39-1.57s-5.85,.52-8.39,1.57c-2.54,1.04-4.74,2.49-6.58,4.34-1.85,1.85-3.29,4.05-4.34,6.62-1.04,2.57-1.57,5.38-1.57,8.43s.52,5.86,1.57,8.43c1.04,2.57,2.49,4.78,4.34,6.62,1.85,1.85,4.04,3.29,6.58,4.34,2.54,1.04,5.34,1.57,8.39,1.57s5.85-.52,8.39-1.57c2.54-1.04,4.74-2.49,6.58-4.34,1.85-1.85,3.29-4.05,4.34-6.62,1.04-2.57,1.57-5.38,1.57-8.43s-.52-5.86-1.57-8.43c-1.04-2.57-2.49-4.78-4.34-6.62Zm-5.46,19.79c-.56,1.39-1.32,2.57-2.29,3.53-.96,.96-2.08,1.7-3.33,2.21-1.26,.51-2.56,.76-3.89,.76s-2.7-.25-3.93-.76c-1.23-.51-2.33-1.24-3.29-2.21-.96-.96-1.73-2.14-2.29-3.53-.56-1.39-.84-2.97-.84-4.74s.28-3.34,.84-4.74c.56-1.39,1.33-2.57,2.29-3.53,.96-.96,2.06-1.7,3.29-2.21,1.23-.51,2.54-.76,3.93-.76s2.64,.25,3.89,.76c1.26,.51,2.37,1.24,3.33,2.21,.96,.96,1.73,2.14,2.29,3.53,.56,1.39,.84,2.97,.84,4.74s-.28,3.35-.84,4.74Z"/><path class="cls-1" d="M184.82,76.87v-5.85h-9.87v39.98h10.52v-18.52c0-.18,.01-.35,.02-.52,.15-2.24,1.6-12.43,14.49-12.43v-8.99c-11.08,0-15.15,6.33-15.15,6.33Z"/><path class="cls-1" d="M69.11,96.15c0,3.9-3.67,7.06-8.19,7.06s-8.19-3.16-8.19-7.06v-25.13h-10.52v25.13c0,8.56,7.55,15.49,18.24,15.49,3.36,0,6.21-1.28,8.66-3.18v2.54h10.52v-39.98h-10.52v25.13Z"/><path class="cls-1" d="M298.45,69.74c-3.36,0-6.21,1.28-8.66,3.18v-2.59h-10.52v40.68h10.52v-25.77c0-3.9,3.67-7.06,8.19-7.06s8.19,3.16,8.19,7.06v25.77h10.52v-25.77c0-8.56-7.55-15.49-18.24-15.49Z"/><path class="cls-1" d="M222.51,59.22h-10.52v11.32h-8.34v8.99h8.34v18.09c0,4.54,1.26,8.03,3.77,10.49,1.07,1.09,2.4,1.95,3.98,2.58,1.58,.63,3.36,.94,5.34,.94h6.32v-9.96h-4.31c-1.39,0-2.46-.44-3.21-1.32-.54-.55-.9-1.23-1.08-2.03-.19-.8-.28-1.67-.28-2.61v-16.19h8.89v-8.99h-8.89v-11.32Z"/><path class="cls-1" d="M150.65,69.57c-11.82,0-21.44,9.62-21.44,21.44s9.62,21.44,21.44,21.44c4.54,0,8.88-1.4,12.54-4.05l-5.14-8.17c-1.99,1.43-4.94,2.41-7.4,2.41-6.41,0-11.62-5.21-11.62-11.62s5.21-11.62,11.62-11.62c4.66,0,8.68,2.75,10.53,6.71h-10.53c-2.71,0-4.91,2.2-4.91,4.91s2.2,4.91,4.91,4.91h16.53c2.71,0,4.91-2.2,4.91-4.91,0-11.82-9.62-21.44-21.44-21.44Z"/><path class="cls-1" d="M337.4,92.88c1.04,2.51,3.91,3.69,6.41,2.66l15.27-6.33c2.5-1.04,3.69-3.91,2.66-6.41-4.52-10.92-17.09-16.13-28.01-11.6-10.92,4.52-16.13,17.09-11.6,28.01,4.52,10.92,17.09,16.13,28.01,11.6,4.19-1.74,7.66-4.69,10.04-8.54l-7.88-5.58c-1.29,2.08-3.65,4.11-5.92,5.06-5.92,2.45-12.73-.37-15.19-6.29-2.45-5.92,.37-12.73,6.29-15.18,4.3-1.78,9.07-.78,12.3,2.17l-9.73,4.03c-2.5,1.04-3.69,3.91-2.66,6.41Z"/></g></g></svg>