<?xml version="1.0" encoding="utf-8"?>
<!-- Generator: Adobe Illustrator 27.0.0, SVG Export Plug-In . SVG Version: 6.00 Build 0)  -->
<svg version="1.1" id="레이어_1" xmlns="http://www.w3.org/2000/svg" xmlns:xlink="http://www.w3.org/1999/xlink" x="0px"
	 y="0px" viewBox="0 0 305.16 52.52" style="enable-background:new 0 0 305.16 52.52;" xml:space="preserve">
<g id="그룹_17455" transform="translate(0 0)">
	<g>
		<g id="그룹_17453" transform="translate(0 0.001)">
			<path id="패스_15199" d="M173.22,17.58v-4.13c0.04-3.28-2.58-5.97-5.86-6.01c-0.05,0-0.1,0-0.16,0h-6.01
				c-3.3-0.02-6,2.65-6.01,5.95c0,0.02,0,0.04,0,0.06v25.48c0.01,3.32,2.7,6,6.01,6.01h6.01c3.32-0.01,6-2.69,6.01-6.01V31.7h-11.27
				v-7.51h18.78v14.73c0.01,7.49-6.04,13.57-13.52,13.6h-6.01c-7.48-0.06-13.51-6.12-13.53-13.6V13.44
				c0-7.46,6.04-13.52,13.51-13.52c0.01,0,0.01,0,0.02,0h6.01c7.44-0.03,13.49,5.97,13.52,13.41c0,0.04,0,0.08,0,0.11v4.13H173.22z"
				/>
			<path id="패스_15200" d="M263.47-0.08v17.13l-12.77,16.76v18.71h-7.51V33.81L230.4,17.95V-0.08h7.51v15.33l8.87,11.05h0.15
				l9.02-11.8V-0.08H263.47z"/>
			<path id="패스_15201" d="M203.13,52.52c-7.48-0.06-13.51-6.12-13.53-13.6V13.44c0-7.47,6.04-13.52,13.51-13.52
				c0.01,0,0.01,0,0.02,0h6.01c7.44-0.03,13.49,5.97,13.52,13.41c0,0.04,0,0.08,0,0.11v25.48c0.01,7.49-6.04,13.57-13.52,13.6
				H203.13z M215.15,38.92V13.44c0.04-3.28-2.58-5.97-5.86-6.01c-0.05,0-0.1,0-0.16,0h-6.01c-3.3-0.02-6,2.65-6.01,5.95
				c0,0.02,0,0.04,0,0.06v25.48c0.01,3.32,2.7,6,6.01,6.01h6.01C212.45,44.92,215.14,42.23,215.15,38.92"/>
			<path id="패스_15202" d="M285.63,52.52c-7.48-0.06-13.51-6.12-13.53-13.6V13.44c0-7.46,6.04-13.52,13.51-13.52
				c0.01,0,0.01,0,0.02,0h6.01c7.44-0.03,13.49,5.97,13.52,13.41c0,0.04,0,0.08,0,0.11v25.48c0.01,7.49-6.04,13.57-13.52,13.6
				H285.63z M297.65,38.92V13.44c0.04-3.28-2.58-5.97-5.86-6.01c-0.05,0-0.1,0-0.16,0h-6.01c-3.3-0.02-6,2.65-6.01,5.95
				c0,0.02,0,0.04,0,0.06v25.48c0.01,3.32,2.7,6,6.01,6.01h6.01C294.96,44.92,297.64,42.23,297.65,38.92"/>
			<rect id="사각형_9604" x="0" y="47.89" width="131.76" height="4.71"/>
			<path id="패스_15203" d="M19.77-0.08C8.85-0.08,0,8.77,0,19.69s8.85,19.77,19.77,19.77s19.77-8.85,19.77-19.77
				C39.53,8.78,30.69-0.07,19.77-0.08 M19.77,11.62c-1.71,0-3.09-1.39-3.09-3.09s1.39-3.09,3.09-3.09s3.09,1.39,3.09,3.09
				c0,0,0,0,0,0C22.87,10.24,21.48,11.62,19.77,11.62"/>
			<path id="패스_15204" d="M65.88-0.08c-10.92,0-19.78,8.85-19.78,19.77s8.85,19.77,19.78,19.77c10.92,0,19.77-8.85,19.77-19.77
				l0,0C85.64,8.78,76.8-0.07,65.88-0.08 M65.88,11.62c-1.71,0-3.09-1.39-3.09-3.09s1.39-3.09,3.09-3.09c1.71,0,3.09,1.38,3.09,3.09
				C68.97,10.24,67.59,11.62,65.88,11.62L65.88,11.62"/>
			<path id="패스_15205" d="M111.99-0.08c-10.92,0-19.77,8.85-19.77,19.77s8.85,19.77,19.77,19.77s19.78-8.85,19.78-19.77
				C131.75,8.78,122.9-0.07,111.99-0.08 M111.99,11.62c-1.71,0-3.09-1.39-3.09-3.09c0-1.71,1.39-3.09,3.09-3.09
				c1.71,0,3.09,1.39,3.09,3.09S113.69,11.62,111.99,11.62L111.99,11.62"/>
		</g>
	</g>
</g>
</svg>
