<?xml version="1.0" encoding="utf-8"?>
<!-- Generator: Adobe Illustrator 27.0.0, SVG Export Plug-In . SVG Version: 6.00 Build 0)  -->
<svg version="1.1" id="레이어_1" xmlns="http://www.w3.org/2000/svg" xmlns:xlink="http://www.w3.org/1999/xlink" x="0px"
	 y="0px" viewBox="0 0 234.5 155.6" style="enable-background:new 0 0 234.5 155.6;" xml:space="preserve">
<g>
	<g id="그룹_17411">
		<path id="패스_15043" d="M28.8,78.1h-8.9C8.9,78.1,0,87,0,98l0,0v37.6c0,11,8.9,20,19.9,20.1h8.9c11,0,20-9,19.9-20.1v-21.7H21
			V125h16.6v10.6c0,4.9-4,8.8-8.9,8.9h-8.9c-4.9,0-8.8-4-8.9-8.9V98c0-4.9,3.9-8.8,8.8-8.9h0.1h8.9c4.8-0.1,8.8,3.8,8.9,8.6
			c0,0.1,0,0.1,0,0.2v6.1h11.1v-6C48.7,87,39.9,78.1,28.8,78.1C28.9,78.1,28.9,78.1,28.8,78.1"/>
		<path id="패스_15044" d="M91.2,78.1h-8.9c-11,0-19.9,8.9-19.9,19.9l0,0v37.6c0,11,8.9,20,19.9,20h8.9c11,0,20-9,19.9-20V98
			c0-11-8.8-19.9-19.8-19.9H91.2 M100,135.6c0,4.9-4,8.8-8.9,8.9h-8.9c-4.9,0-8.8-4-8.9-8.9V98c0-4.9,3.9-8.8,8.8-8.9h0.1h8.9
			c4.8-0.1,8.8,3.8,8.9,8.6c0,0.1,0,0.2,0,0.2V135.6z"/>
		<path id="패스_15045" d="M214.5,78.1h-8.9c-11,0-19.9,8.9-19.9,19.9l0,0v37.6c0,11,8.9,20,19.9,20h8.9c11,0,20-9,19.9-20V98
			C234.4,87,225.6,78.1,214.5,78.1C214.6,78.1,214.6,78.1,214.5,78.1 M223.4,135.6c0,4.9-4,8.8-8.9,8.9h-8.9c-4.9,0-8.8-4-8.9-8.9
			V98c0-4.9,3.9-8.8,8.8-8.9h0.1h8.9c4.8-0.1,8.8,3.8,8.9,8.6c0,0.1,0,0.2,0,0.2L223.4,135.6z"/>
		<path id="패스_15046" d="M161.1,78.1v21.5L147.8,117h-0.2l-13.1-16.3V78.1h-11.1v26.6l18.8,23.4v27.6h11.1V128l18.8-24.7V78.1
			H161.1z"/>
		<path id="패스_15047" d="M64.5,45.3c-12.5,0-22.6-10.1-22.6-22.6C41.8,10.1,52,0,64.5,0s22.6,10.1,22.6,22.6S77,45.3,64.5,45.3
			 M64.5,5.4c-9.5,0-17.2,7.7-17.2,17.2S55,39.8,64.5,39.8s17.2-7.7,17.2-17.2l0,0C81.7,13.1,74,5.4,64.5,5.4"/>
		<path id="패스_15048" d="M68,12.2c0,2-1.6,3.5-3.5,3.5c-2,0-3.5-1.6-3.5-3.5c0-2,1.6-3.5,3.5-3.5l0,0C66.4,8.7,68,10.3,68,12.2
			L68,12.2"/>
		<rect id="사각형_9572" x="41.8" y="54.9" width="150.8" height="5.4"/>
		<path id="패스_15049" d="M117.2,45.3c-12.5,0-22.6-10.1-22.6-22.6C94.6,10.1,104.7,0,117.2,0s22.6,10.1,22.6,22.6
			C139.9,35.1,129.7,45.3,117.2,45.3 M117.2,5.4c-9.5,0-17.2,7.7-17.2,17.2s7.7,17.2,17.2,17.2s17.2-7.7,17.2-17.2
			C134.5,13.1,126.8,5.4,117.2,5.4"/>
		<path id="패스_15050" d="M120.8,12.2c0,2-1.6,3.5-3.5,3.5s-3.5-1.6-3.5-3.5c0-2,1.6-3.5,3.5-3.5l0,0
			C119.2,8.7,120.8,10.3,120.8,12.2L120.8,12.2"/>
		<path id="패스_15051" d="M170,45.3c-12.5,0-22.6-10.1-22.6-22.6C147.4,10.1,157.5,0,170,0s22.6,10.1,22.6,22.6
			C192.7,35.1,182.5,45.3,170,45.3 M170,5.4c-9.5,0-17.2,7.7-17.2,17.2s7.7,17.2,17.2,17.2s17.2-7.7,17.2-17.2l0,0
			C187.2,13.1,179.5,5.4,170,5.4"/>
		<path id="패스_15052" d="M173.6,12.2c0,2-1.6,3.5-3.5,3.5c-2,0-3.5-1.6-3.5-3.5c0-2,1.6-3.5,3.5-3.5l0,0
			C172,8.7,173.6,10.3,173.6,12.2L173.6,12.2"/>
	</g>
</g>
</svg>
