<?xml version="1.0" encoding="utf-8"?>
<!-- Generator: Adobe Illustrator 27.0.0, SVG Export Plug-In . SVG Version: 6.00 Build 0)  -->
<svg version="1.1" id="레이어_1" xmlns="http://www.w3.org/2000/svg" xmlns:xlink="http://www.w3.org/1999/xlink" x="0px"
	 y="0px" viewBox="0 0 292 58.1" style="enable-background:new 0 0 292 58.1;" xml:space="preserve">
<g>
	<g>
		<g>
			<polygon points="277.7,10.2 279.7,10.2 278.7,7.5 			"/>
			<path d="M253.4,10.4h-2v2.3h2c0.4,0,0.8-0.4,0.8-0.8v-0.7C254.2,10.8,253.9,10.4,253.4,10.4z"/>
			<path d="M253.9,7.2V6.6c0-0.5-0.3-0.8-0.8-0.8h-1.7V8h1.7C253.6,8,253.9,7.7,253.9,7.2z"/>
			<path d="M282.8,0.6h-34c-4.6,0-8.6,4.1-8.6,8.8s4,8.8,8.6,8.8h34c4.6,0,8.6-4.1,8.6-8.8S287.4,0.6,282.8,0.6z M256.6,11.9
				c0,1.8-1.4,3.2-3.2,3.2H249V3.4h4.1c1.8,0,3.2,1.4,3.2,3.2v0.6c0,0.7-0.2,1.3-0.6,1.8c0.6,0.6,0.9,1.4,0.9,2.2V11.9z M265.6,5.8
				h-5.2v2h4.6v2.4h-4.6v2.6h5.2v2.4H258V3.4h7.6L265.6,5.8L265.6,5.8z M274.5,5.8h-2.6v9.4h-2.4V5.8h-2.6V3.4h7.6L274.5,5.8
				L274.5,5.8z M282.5,15.1h-2.4v-2.6h-2.8v2.6h-2.4V11l2.8-7.7h2.1l2.8,7.7L282.5,15.1L282.5,15.1z"/>
		</g>
		<g>
			<path d="M89.6,20v-4.4c0-3.6-2.8-6.4-6.4-6.4h-6.4c-3.6,0-6.4,2.9-6.4,6.4v27.3c0,3.5,2.9,6.5,6.4,6.5h6.4c3.6,0,6.4-2.9,6.4-6.5
				v-4.4v-3.3H77.5v-8.1h20.2v11.4v4.4c0,8-6.4,14.6-14.5,14.6h-6.4c-8,0-14.5-6.6-14.5-14.6V15.6c0-8.1,6.5-14.5,14.5-14.5h6.4
				c8.1,0,14.5,6.4,14.5,14.5V20L89.6,20L89.6,20z"/>
			<path d="M186.4,1.1v18.4l-13.7,18v20.1h-8.1V37.5l-13.7-17V1.1h8.1v16.5l9.5,11.9h0.2l9.7-12.7V1.1H186.4z"/>
			<path d="M121.7,57.5c-8,0-14.5-6.6-14.5-14.6V15.6c0-8.1,6.5-14.5,14.5-14.5h6.4c8.1,0,14.5,6.4,14.5,14.5v27.3
				c0,8-6.4,14.6-14.5,14.6H121.7z M134.6,42.9V15.6c0-3.6-2.8-6.4-6.4-6.4h-6.4c-3.6,0-6.4,2.9-6.4,6.4v27.3c0,3.5,2.9,6.5,6.4,6.5
				h6.4C131.7,49.4,134.6,46.5,134.6,42.9z"/>
			<path d="M210.2,57.5c-8,0-14.5-6.6-14.5-14.6V15.6c0-8.1,6.5-14.5,14.5-14.5h6.4c8.1,0,14.5,6.4,14.5,14.5v27.3
				c0,8-6.4,14.6-14.5,14.6H210.2z M223.1,42.9V15.6c0-3.6-2.8-6.4-6.4-6.4h-6.4c-3.6,0-6.4,2.9-6.4,6.4v27.3c0,3.5,2.9,6.5,6.4,6.5
				h6.4C220.2,49.4,223.1,46.5,223.1,42.9z"/>
		</g>
	</g>
	<g>
		<g>
			<path d="M22.9,45.5c-12.2,0-22.2-10-22.2-22.2s10-22.2,22.2-22.2c12.3,0,22.2,10,22.2,22.2S35.2,45.5,22.9,45.5z M22.9,6.4
				C13.6,6.4,6,14,6,23.3s7.6,16.9,16.9,16.9s16.9-7.6,16.9-16.9S32.2,6.4,22.9,6.4z"/>
			<circle cx="22.9" cy="13.1" r="3.5"/>
		</g>
		<rect x="2.4" y="52.2" width="41" height="5.3"/>
	</g>
</g>
</svg>
